<svg xmlns="http://www.w3.org/2000/svg" xmlns:xlink="http://www.w3.org/1999/xlink" style="margin:auto;background:rgba(NaN, NaN, NaN, 0);display:block;z-index:1;position:relative" width="550" height="657" preserveAspectRatio="xMidYMid" viewBox="0 0 550 657">
<g transform="translate(275,328.5) scale(1,1) translate(-275,-328.5)"><path id="path0" d="M 437.92920930913465 125.5862013589611
c 0 26.596932715376454 -6.507760132485727 7.639544503352811 -14.147304635838537 7.639544503352811
S 409.63460003745763 152.18313407433754 409.63460003745763 125.5862013589611
s 6.507760132485727 -7.639544503352811 14.147304635838537 -7.639544503352811
S 437.92920930913465 98.98926864358465 437.92920930913465 125.5862013589611
z" fill="none" stroke="none"></path>
<circle cx="0" cy="0" r="5.025770598022669" fill="#51cacc">
  <animateMotion begin="-1.527229315364611s" dur="10s" repeatCount="indefinite">
    <mpath xlink:href="#path0"></mpath>
  </animateMotion>
</circle><path id="path1" d="M 148.75554676924844 333.2872252301864
c 0 35.745143787213365 -8.746152203254333 10.267222151646392 -19.013374354900726 10.267222151646392
S 110.728798059447 369.03236901739973 110.728798059447 333.2872252301864
s 8.746152203254333 -10.267222151646392 19.013374354900726 -10.267222151646392
S 148.75554676924844 297.54208144297303 148.75554676924844 333.2872252301864
z" fill="none" stroke="none"></path>
<circle cx="0" cy="0" r="6.245846689654988" fill="#9df871">
  <animateMotion begin="-8.727823963152206s" dur="10s" repeatCount="indefinite">
    <mpath xlink:href="#path1"></mpath>
  </animateMotion>
</circle><path id="path2" d="M 286.2077854865272 440.07077564938703
c 0 22.356136787172417 -5.47011857558474 6.421443545251652 -11.891562120836392 6.421443545251652
S 262.4246612448544 462.42691243655946 262.4246612448544 440.07077564938703
s 5.47011857558474 -6.421443545251652 11.891562120836392 -6.421443545251652
S 286.2077854865272 417.7146388622146 286.2077854865272 440.07077564938703
z" fill="none" stroke="none"></path>
<circle cx="0" cy="0" r="4.674337670770866" fill="#de9dd6">
  <animateMotion begin="-7.808660363416299s" dur="10s" repeatCount="indefinite">
    <mpath xlink:href="#path2"></mpath>
  </animateMotion>
</circle><path id="path3" d="M 472.18088503695384 368.80104182477976
c 0 27.045818930063543 -6.617593993526185 7.768479905443784 -14.386073898969968 7.768479905443784
S 443.4087372390139 395.8468607548433 443.4087372390139 368.80104182477976
s 6.617593993526185 -7.768479905443784 14.386073898969968 -7.768479905443784
S 472.18088503695384 341.7552228947162 472.18088503695384 368.80104182477976
z" fill="none" stroke="none"></path>
<circle cx="0" cy="0" r="4.16548662853881" fill="#9df871">
  <animateMotion begin="-3.786305456565622s" dur="10s" repeatCount="indefinite">
    <mpath xlink:href="#path3"></mpath>
  </animateMotion>
</circle><path id="path4" d="M 495.2839184083944 545.6737869717375
c 0 30.409334093497563 -7.4405817462813175 8.734595963025896 -16.175177709307214 8.734595963025896
S 462.93356298978 576.0831210652351 462.93356298978 545.6737869717375
s 7.4405817462813175 -8.734595963025896 16.175177709307214 -8.734595963025896
S 495.2839184083944 515.2644528782399 495.2839184083944 545.6737869717375
z" fill="none" stroke="none"></path>
<circle cx="0" cy="0" r="6.275692233779701" fill="#e0ff77">
  <animateMotion begin="-4.286044066627457s" dur="10s" repeatCount="indefinite">
    <mpath xlink:href="#path4"></mpath>
  </animateMotion>
</circle><path id="path5" d="M 174.21576740344696 542.4624914622176
c 0 30.55873595356017 -7.477137520551955 8.777509263256645 -16.2546467838086 8.777509263256645
S 141.70647383582977 573.0212274157777 141.70647383582977 542.4624914622176
s 7.477137520551955 -8.777509263256645 16.2546467838086 -8.777509263256645
S 174.21576740344696 511.9037555086574 174.21576740344696 542.4624914622176
z" fill="none" stroke="none"></path>
<circle cx="0" cy="0" r="5.523288517554668" fill="#de9dd6">
  <animateMotion begin="-0.8175260215304458s" dur="10s" repeatCount="indefinite">
    <mpath xlink:href="#path5"></mpath>
  </animateMotion>
</circle><path id="path6" d="M 291.83073234451956 571.4302094611185
c 0 19.73815381436007 -4.829548273726401 5.66946971263534 -10.499017986361741 5.66946971263534
S 270.83269637179603 591.1683632754786 270.83269637179603 571.4302094611185
s 4.829548273726401 -5.66946971263534 10.499017986361741 -5.66946971263534
S 291.83073234451956 551.6920556467584 291.83073234451956 571.4302094611185
z" fill="none" stroke="none"></path>
<circle cx="0" cy="0" r="6.313812974382562" fill="#51cacc">
  <animateMotion begin="-6.472179620601746s" dur="10s" repeatCount="indefinite">
    <mpath xlink:href="#path6"></mpath>
  </animateMotion>
</circle><path id="path7" d="M 89.59159734765419 570.8374544068288
c 0 22.20204097747477 -5.43241428172255 6.37718198289169 -11.809596264614239 6.37718198289169
S 65.9724048184257 593.0394953843036 65.9724048184257 570.8374544068288
s 5.43241428172255 -6.37718198289169 11.809596264614239 -6.37718198289169
S 89.59159734765419 548.635413429354 89.59159734765419 570.8374544068288
z" fill="none" stroke="none"></path>
<circle cx="0" cy="0" r="4.615295950810407" fill="#ff708e">
  <animateMotion begin="-6.555339520414489s" dur="10s" repeatCount="indefinite">
    <mpath xlink:href="#path7"></mpath>
  </animateMotion>
</circle><path id="path8" d="M 96.95315082789034 623.7642932501665
c 0 36.09022067694775 -8.830585910317001 10.366339981676482 -19.196925891993484 10.366339981676482
S 58.559299043903366 659.8545139271142 58.559299043903366 623.7642932501665
s 8.830585910317001 -10.366339981676482 19.196925891993484 -10.366339981676482
S 96.95315082789034 587.6740725732187 96.95315082789034 623.7642932501665
z" fill="none" stroke="none"></path>
<circle cx="0" cy="0" r="5.64183881882213" fill="#51cacc">
  <animateMotion begin="-4.148516353679543s" dur="10s" repeatCount="indefinite">
    <mpath xlink:href="#path8"></mpath>
  </animateMotion>
</circle><path id="path9" d="M 229.35150061467067 215.5911518913222
c 0 29.596436417595186 -7.241681251113715 8.501104077394363 -15.742785328508077 8.501104077394363
S 197.8659299576545 245.18758830891738 197.8659299576545 215.5911518913222
s 7.241681251113715 -8.501104077394363 15.742785328508077 -8.501104077394363
S 229.35150061467067 185.994715473727 229.35150061467067 215.5911518913222
z" fill="none" stroke="none"></path>
<circle cx="0" cy="0" r="4.156831734380741" fill="#ff708e">
  <animateMotion begin="-1.9598782231377943s" dur="10s" repeatCount="indefinite">
    <mpath xlink:href="#path9"></mpath>
  </animateMotion>
</circle><path id="path10" d="M 402.19797716200543 128.36182034397595
c 0 28.781792675104995 -7.042353526887392 8.267110661998244 -15.309464188885634 8.267110661998244
S 371.5790487842342 157.14361301908093 371.5790487842342 128.36182034397595
s 7.042353526887392 -8.267110661998244 15.309464188885634 -8.267110661998244
S 402.19797716200543 99.58002766887095 402.19797716200543 128.36182034397595
z" fill="none" stroke="none"></path>
<circle cx="0" cy="0" r="4.6905977142678" fill="#51cacc">
  <animateMotion begin="-7.663784325855385s" dur="10s" repeatCount="indefinite">
    <mpath xlink:href="#path10"></mpath>
  </animateMotion>
</circle><path id="path11" d="M 133.63701769491942 226.38725964973247
c 0 27.0285415756343 -6.613366555740307 7.763517261086449 -14.376883816826755 7.763517261086449
S 104.88325006126593 253.41580122536678 104.88325006126593 226.38725964973247
s 6.613366555740307 -7.763517261086449 14.376883816826755 -7.763517261086449
S 133.63701769491942 199.35871807409816 133.63701769491942 226.38725964973247
z" fill="none" stroke="none"></path>
<circle cx="0" cy="0" r="4.506921538669476" fill="#51cacc">
  <animateMotion begin="-0.661442806213417s" dur="10s" repeatCount="indefinite">
    <mpath xlink:href="#path11"></mpath>
  </animateMotion>
</circle><path id="path12" d="M 171.28795308871292 77.86788312295239
c 0 32.67655957581564 -7.995328406848507 9.385820303691727 -17.381148710540234 9.385820303691727
S 136.52565566763246 110.54444269876802 136.52565566763246 77.86788312295239
s 7.995328406848507 -9.385820303691727 17.381148710540234 -9.385820303691727
S 171.28795308871292 45.191323547136754 171.28795308871292 77.86788312295239
z" fill="none" stroke="none"></path>
<circle cx="0" cy="0" r="7.1953638177034325" fill="#ff708e">
  <animateMotion begin="-1.3602417377551879s" dur="10s" repeatCount="indefinite">
    <mpath xlink:href="#path12"></mpath>
  </animateMotion>
</circle><path id="path13" d="M 504.1862743466933 437.4447602199298
c 0 36.03038694078645 -8.815945740830726 10.349153695757812 -19.165099436588537 10.349153695757812
S 465.8560754735162 473.47514716071623 465.8560754735162 437.4447602199298
s 8.815945740830726 -10.349153695757812 19.165099436588537 -10.349153695757812
S 504.1862743466933 401.4143732791433 504.1862743466933 437.4447602199298
z" fill="none" stroke="none"></path>
<circle cx="0" cy="0" r="6.531420616897617" fill="#e0ff77">
  <animateMotion begin="-8.5584110974347s" dur="10s" repeatCount="indefinite">
    <mpath xlink:href="#path13"></mpath>
  </animateMotion>
</circle><path id="path14" d="M 81.61248352149563 453.32631388358027
c 0 37.346914819872694 -9.138074902734807 10.727305320601731 -19.86538022333654 10.727305320601731
S 41.88172307482256 490.673228703453 41.88172307482256 453.32631388358027
s 9.138074902734807 -10.727305320601731 19.86538022333654 -10.727305320601731
S 81.61248352149563 415.97939906370755 81.61248352149563 453.32631388358027
z" fill="none" stroke="none"></path>
<circle cx="0" cy="0" r="4.696199094253843" fill="#9df871">
  <animateMotion begin="-4.859038396834741s" dur="10s" repeatCount="indefinite">
    <mpath xlink:href="#path14"></mpath>
  </animateMotion>
</circle><path id="path15" d="M 552.9153812784249 330.4690710525656
c 0 23.67589454173961 -5.793038026170329 6.80052290028691 -12.59356092645724 6.80052290028691
S 527.7282594255104 354.1449655943052 527.7282594255104 330.4690710525656
s 5.793038026170329 -6.80052290028691 12.59356092645724 -6.80052290028691
S 552.9153812784249 306.793176510826 552.9153812784249 330.4690710525656
z" fill="none" stroke="none"></path>
<circle cx="0" cy="0" r="5.560850442561512" fill="#e0ff77">
  <animateMotion begin="-6.794994861104023s" dur="10s" repeatCount="indefinite">
    <mpath xlink:href="#path15"></mpath>
  </animateMotion>
</circle><path id="path16" d="M 213.60215208655873 103.17009829185386
c 0 21.393415416967215 -5.234559091385595 6.144917194235265 -11.37947628562086 6.144917194235265
S 190.84319951531702 124.56351370882108 190.84319951531702 103.17009829185386
s 5.234559091385595 -6.144917194235265 11.37947628562086 -6.144917194235265
S 213.60215208655873 81.77668287488665 213.60215208655873 103.17009829185386
z" fill="none" stroke="none"></path>
<circle cx="0" cy="0" r="6.638550078224219" fill="#ff708e">
  <animateMotion begin="-2.8480353381552836s" dur="10s" repeatCount="indefinite">
    <mpath xlink:href="#path16"></mpath>
  </animateMotion>
</circle><path id="path17" d="M 478.3379075886181 481.542937525275
c 0 26.897121470073337 -6.581210572464752 7.725768932893406 -14.306979505358157 7.725768932893406
S 449.72394857790187 508.44005899534835 449.72394857790187 481.542937525275
s 6.581210572464752 -7.725768932893406 14.306979505358157 -7.725768932893406
S 478.3379075886181 454.6458160552017 478.3379075886181 481.542937525275
z" fill="none" stroke="none"></path>
<circle cx="0" cy="0" r="5.637914040397485" fill="#de9dd6">
  <animateMotion begin="-7.1000049297735774s" dur="10s" repeatCount="indefinite">
    <mpath xlink:href="#path17"></mpath>
  </animateMotion>
</circle><path id="path18" d="M 384.7294102161709 240.3046244623575
c 0 23.542972533939828 -5.760514556176766 6.762343174642291 -12.522857730819057 6.762343174642291
S 359.6836947545328 263.84759699629734 359.6836947545328 240.3046244623575
s 5.760514556176766 -6.762343174642291 12.522857730819057 -6.762343174642291
S 384.7294102161709 216.76165192841768 384.7294102161709 240.3046244623575
z" fill="none" stroke="none"></path>
<circle cx="0" cy="0" r="6.942068248118311" fill="#9df871">
  <animateMotion begin="-0.44517752677682765s" dur="10s" repeatCount="indefinite">
    <mpath xlink:href="#path18"></mpath>
  </animateMotion>
</circle><path id="path19" d="M 123.71839467638782 481.2940141121982
c 0 20.399599289676885 -4.9913913155592375 5.859459370439105 -10.850850685998344 5.859459370439105
S 102.01669330439114 501.6936134018751 102.01669330439114 481.2940141121982
s 4.9913913155592375 -5.859459370439105 10.850850685998344 -5.859459370439105
S 123.71839467638782 460.89441482252136 123.71839467638782 481.2940141121982
z" fill="none" stroke="none"></path>
<circle cx="0" cy="0" r="6.048220663538092" fill="#ff708e">
  <animateMotion begin="-5.736768379237011s" dur="10s" repeatCount="indefinite">
    <mpath xlink:href="#path19"></mpath>
  </animateMotion>
</circle><path id="path20" d="M 108.16580171308142 148.9881168459599
c 0 24.565773385416446 -6.0107743389848745 7.056126397938766 -13.06690073692364 7.056126397938766
S 82.03200023923414 173.55389023137633 82.03200023923414 148.9881168459599
s 6.0107743389848745 -7.056126397938766 13.06690073692364 -7.056126397938766
S 108.16580171308142 124.42234346054344 108.16580171308142 148.9881168459599
z" fill="none" stroke="none"></path>
<circle cx="0" cy="0" r="5.599726552580407" fill="#9df871">
  <animateMotion begin="-7.0584257267744155s" dur="10s" repeatCount="indefinite">
    <mpath xlink:href="#path20"></mpath>
  </animateMotion>
</circle><path id="path21" d="M 347.400011168361 580.8762216430601
c 0 20.324746422905985 -4.973076252413166 5.837959078919804 -10.81103533133297 5.837959078919804
S 325.7779405056951 601.2009680659661 325.7779405056951 580.8762216430601
s 4.973076252413166 -5.837959078919804 10.81103533133297 -5.837959078919804
S 347.400011168361 560.5514752201542 347.400011168361 580.8762216430601
z" fill="none" stroke="none"></path>
<circle cx="0" cy="0" r="4.083515881853017" fill="#e0ff77">
  <animateMotion begin="-8.290295203654342s" dur="10s" repeatCount="indefinite">
    <mpath xlink:href="#path21"></mpath>
  </animateMotion>
</circle><path id="path22" d="M 331.8224543652115 227.92728091549844
c 0 22.64705168478574 -5.541299880319914 6.505004207332075 -12.04630408765199 6.505004207332075
S 307.7298461899075 250.57433260028418 307.7298461899075 227.92728091549844
s 5.541299880319914 -6.505004207332075 12.04630408765199 -6.505004207332075
S 331.8224543652115 205.2802292307127 331.8224543652115 227.92728091549844
z" fill="none" stroke="none"></path>
<circle cx="0" cy="0" r="5.045594293411347" fill="#ff708e">
  <animateMotion begin="-5.738893001731404s" dur="10s" repeatCount="indefinite">
    <mpath xlink:href="#path22"></mpath>
  </animateMotion>
</circle><path id="path23" d="M 401.15072697248314 611.8159557194112
c 0 28.1852922321948 -6.896401290856174 8.09577542839638 -14.992176719252551 8.09577542839638
S 371.16637353397806 640.001247951606 371.16637353397806 611.8159557194112
s 6.896401290856174 -8.09577542839638 14.992176719252551 -8.09577542839638
S 401.15072697248314 583.6306634872165 401.15072697248314 611.8159557194112
z" fill="none" stroke="none"></path>
<circle cx="0" cy="0" r="6.981019684286798" fill="#e0ff77">
  <animateMotion begin="-6.976879794525295s" dur="10s" repeatCount="indefinite">
    <mpath xlink:href="#path23"></mpath>
  </animateMotion>
</circle><path id="path24" d="M 128.51265588412335 399.7159127885567
c 0 22.486011894484356 -5.501896527373831 6.458748097351889 -11.96064462472572 6.458748097351889
S 104.59136663467191 422.20192468304106 104.59136663467191 399.7159127885567
s 5.501896527373831 -6.458748097351889 11.96064462472572 -6.458748097351889
S 128.51265588412335 377.22990089407233 128.51265588412335 399.7159127885567
z" fill="none" stroke="none"></path>
<circle cx="0" cy="0" r="4.702047715349874" fill="#51cacc">
  <animateMotion begin="-9.067161385016435s" dur="10s" repeatCount="indefinite">
    <mpath xlink:href="#path24"></mpath>
  </animateMotion>
</circle><path id="path25" d="M 209.85418503306315 566.3358480336378
c 0 28.317408092510824 -6.928727511997328 8.133723601040343 -15.062451113037671 8.133723601040343
S 179.7292828069878 594.6532561261487 179.7292828069878 566.3358480336378
s 6.928727511997328 -8.133723601040343 15.062451113037671 -8.133723601040343
S 209.85418503306315 538.018439941127 209.85418503306315 566.3358480336378
z" fill="none" stroke="none"></path>
<circle cx="0" cy="0" r="4.192476777959791" fill="#de9dd6">
  <animateMotion begin="-9.043593855094853s" dur="10s" repeatCount="indefinite">
    <mpath xlink:href="#path25"></mpath>
  </animateMotion>
</circle><path id="path26" d="M 469.3926870168917 79.77782199983787
c 0 30.571467703313417 -7.480252735917111 8.781166255207046 -16.261418991124156 8.781166255207046
S 436.8698490346434 110.34928970315129 436.8698490346434 79.77782199983787
s 7.480252735917111 -8.781166255207046 16.261418991124156 -8.781166255207046
S 469.3926870168917 49.20635429652445 469.3926870168917 79.77782199983787
z" fill="none" stroke="none"></path>
<circle cx="0" cy="0" r="5.622272629646573" fill="#51cacc">
  <animateMotion begin="-2.7347559470894645s" dur="10s" repeatCount="indefinite">
    <mpath xlink:href="#path26"></mpath>
  </animateMotion>
</circle><path id="path27" d="M 509.0963881361866 442.64531297154286
c 0 22.045520910643518 -5.394116818561711 6.3322240913550525 -11.726340909916765 6.3322240913550525
S 485.6437063163531 464.6908338821864 485.6437063163531 442.64531297154286
s 5.394116818561711 -6.3322240913550525 11.726340909916765 -6.3322240913550525
S 509.0963881361866 420.59979206089935 509.0963881361866 442.64531297154286
z" fill="none" stroke="none"></path>
<circle cx="0" cy="0" r="6.147923109808828" fill="#9df871">
  <animateMotion begin="-7.698344595819111s" dur="10s" repeatCount="indefinite">
    <mpath xlink:href="#path27"></mpath>
  </animateMotion>
</circle><path id="path28" d="M 270.37806658635225 589.3065820024241
c 0 28.302742440237154 -6.925139107717601 8.129511126451098 -15.054650234168697 8.129511126451098
S 240.26876611801484 617.6093244426612 240.26876611801484 589.3065820024241
s 6.925139107717601 -8.129511126451098 15.054650234168697 -8.129511126451098
S 270.37806658635225 561.003839562187 270.37806658635225 589.3065820024241
z" fill="none" stroke="none"></path>
<circle cx="0" cy="0" r="7.71356707768652" fill="#9df871">
  <animateMotion begin="-0.6449109967903088s" dur="10s" repeatCount="indefinite">
    <mpath xlink:href="#path28"></mpath>
  </animateMotion>
</circle><path id="path29" d="M 109.66153987120096 447.0537142427019
c 0 25.228136849677277 -6.172841995133801 7.246379733417942 -13.419221728551742 7.246379733417942
S 82.82309641409746 472.2818510923792 82.82309641409746 447.0537142427019
s 6.172841995133801 -7.246379733417942 13.419221728551742 -7.246379733417942
S 109.66153987120096 421.8255773930246 109.66153987120096 447.0537142427019
z" fill="none" stroke="none"></path>
<circle cx="0" cy="0" r="6.093374440618171" fill="#ff708e">
  <animateMotion begin="-1.2672050555000958s" dur="10s" repeatCount="indefinite">
    <mpath xlink:href="#path29"></mpath>
  </animateMotion>
</circle><path id="path30" d="M 41.71632319973851 245.38378118060638
c 0 20.84559124444147 -5.100517006618657 5.987563442552337 -11.088080449170993 5.987563442552337
S 19.540162301396528 266.22937242504787 19.540162301396528 245.38378118060638
s 5.100517006618657 -5.987563442552337 11.088080449170993 -5.987563442552337
S 41.71632319973851 224.5381899361649 41.71632319973851 245.38378118060638
z" fill="none" stroke="none"></path>
<circle cx="0" cy="0" r="7.777976713011057" fill="#e0ff77">
  <animateMotion begin="-6.226496450905437s" dur="10s" repeatCount="indefinite">
    <mpath xlink:href="#path30"></mpath>
  </animateMotion>
</circle><path id="path31" d="M 278.6131189112851 614.8357005416616
c 0 22.2094141053248 -5.4342183449198975 6.379299796210315 -11.813518141130213 6.379299796210315
S 254.98608262902468 637.0451146469863 254.98608262902468 614.8357005416616
s 5.4342183449198975 -6.379299796210315 11.813518141130213 -6.379299796210315
S 278.6131189112851 592.6262864363368 278.6131189112851 614.8357005416616
z" fill="none" stroke="none"></path>
<circle cx="0" cy="0" r="7.335513716842261" fill="#51cacc">
  <animateMotion begin="-4.0252016904134695s" dur="10s" repeatCount="indefinite">
    <mpath xlink:href="#path31"></mpath>
  </animateMotion>
</circle><path id="path32" d="M 238.95291704541228 600.3641804200138
c 0 36.415682014860245 -8.910220067465804 10.459823557459858 -19.37004362492566 10.459823557459858
S 200.21282979556094 636.7798624348741 200.21282979556094 600.3641804200138
s 8.910220067465804 -10.459823557459858 19.37004362492566 -10.459823557459858
S 238.95291704541228 563.9484984051535 238.95291704541228 600.3641804200138
z" fill="none" stroke="none"></path>
<circle cx="0" cy="0" r="5.837825934887382" fill="#ff708e">
  <animateMotion begin="-2.8634354807173423s" dur="10s" repeatCount="indefinite">
    <mpath xlink:href="#path32"></mpath>
  </animateMotion>
</circle><path id="path33" d="M 541.6077174642234 289.04197406487083
c 0 22.569329279461137 -5.522282696038362 6.48267968665373 -12.004962382692092 6.48267968665373
S 517.5977926988393 311.611303344332 517.5977926988393 289.04197406487083
s 5.522282696038362 -6.48267968665373 12.004962382692092 -6.48267968665373
S 541.6077174642234 266.47264478540967 541.6077174642234 289.04197406487083
z" fill="none" stroke="none"></path>
<circle cx="0" cy="0" r="6.918508874339313" fill="#ff708e">
  <animateMotion begin="-7.33000421195425s" dur="10s" repeatCount="indefinite">
    <mpath xlink:href="#path33"></mpath>
  </animateMotion>
</circle><path id="path34" d="M 449.2839494114198 617.8666818478971
c 0 32.956848121707395 -8.063909646800745 9.46632871580957 -17.530238362610316 9.46632871580957
S 414.2234726861992 650.8235299696045 414.2234726861992 617.8666818478971
s 8.063909646800745 -9.46632871580957 17.530238362610316 -9.46632871580957
S 449.2839494114198 584.9098337261897 449.2839494114198 617.8666818478971
z" fill="none" stroke="none"></path>
<circle cx="0" cy="0" r="4.897687844911686" fill="#51cacc">
  <animateMotion begin="-1.637150132238041s" dur="10s" repeatCount="indefinite">
    <mpath xlink:href="#path34"></mpath>
  </animateMotion>
</circle><path id="path35" d="M 195.56506287881354 267.318906042252
c 0 28.104139058765398 -6.876544663314936 8.072465474326231 -14.949010137641167 8.072465474326231
S 165.66704260353117 295.4230451010174 165.66704260353117 267.318906042252
s 6.876544663314936 -8.072465474326231 14.949010137641167 -8.072465474326231
S 195.56506287881354 239.21476698348664 195.56506287881354 267.318906042252
z" fill="none" stroke="none"></path>
<circle cx="0" cy="0" r="7.549181007083285" fill="#9df871">
  <animateMotion begin="-6.543529717276955s" dur="10s" repeatCount="indefinite">
    <mpath xlink:href="#path35"></mpath>
  </animateMotion>
</circle><path id="path36" d="M 422.84227490960166 316.19184862040544
c 0 26.219333380699705 -6.415368805915885 7.531085119988214 -13.946453925904098 7.531085119988214
S 394.94936705779344 342.41118200110515 394.94936705779344 316.19184862040544
s 6.415368805915885 -7.531085119988214 13.946453925904098 -7.531085119988214
S 422.84227490960166 289.97251523970573 422.84227490960166 316.19184862040544
z" fill="none" stroke="none"></path>
<circle cx="0" cy="0" r="4.490674083201799" fill="#51cacc">
  <animateMotion begin="-1.024417720066535s" dur="10s" repeatCount="indefinite">
    <mpath xlink:href="#path36"></mpath>
  </animateMotion>
</circle><path id="path37" d="M 45.657302460517336 48.612028979085544
c 0 30.871725898285217 -7.5537201666017015 8.86741063035852 -16.42113079696022 8.86741063035852
S 12.815040866596895 79.48375487737076 12.815040866596895 48.612028979085544
s 7.5537201666017015 -8.86741063035852 16.42113079696022 -8.86741063035852
S 45.657302460517336 17.740303080800327 45.657302460517336 48.612028979085544
z" fill="none" stroke="none"></path>
<circle cx="0" cy="0" r="5.097465581012807" fill="#51cacc">
  <animateMotion begin="-3.6642125599312614s" dur="10s" repeatCount="indefinite">
    <mpath xlink:href="#path37"></mpath>
  </animateMotion>
</circle><path id="path38" d="M 383.76315563661683 24.10764645054475
c 0 33.2066111992461 -8.125021889177235 9.538069174251538 -17.663091063428773 9.538069174251538
S 348.43697350975924 57.31425764979085 348.43697350975924 24.10764645054475
s 8.125021889177235 -9.538069174251538 17.663091063428773 -9.538069174251538
S 383.76315563661683 -9.098964748701349 383.76315563661683 24.10764645054475
z" fill="none" stroke="none"></path>
<circle cx="0" cy="0" r="4.157492512906336" fill="#e0ff77">
  <animateMotion begin="-9.873222485533939s" dur="10s" repeatCount="indefinite">
    <mpath xlink:href="#path38"></mpath>
  </animateMotion>
</circle><path id="path39" d="M 258.8580590404482 177.81617910182024
c 0 30.21848319021299 -7.393884184839347 8.67977708655054 -16.073661271389888 8.67977708655054
S 226.71073649766845 208.03466229203323 226.71073649766845 177.81617910182024
s 7.393884184839347 -8.67977708655054 16.073661271389888 -8.67977708655054
S 258.8580590404482 147.59769591160725 258.8580590404482 177.81617910182024
z" fill="none" stroke="none"></path>
<circle cx="0" cy="0" r="4.472608718681467" fill="#e0ff77">
  <animateMotion begin="-6.815400844232505s" dur="10s" repeatCount="indefinite">
    <mpath xlink:href="#path39"></mpath>
  </animateMotion>
</circle></g>
</svg>