<svg xmlns="http://www.w3.org/2000/svg" xmlns:xlink="http://www.w3.org/1999/xlink" style="margin:auto;background:rgba(NaN, NaN, NaN, 0);display:block;z-index:1;position:relative" width="1366" height="657" preserveAspectRatio="xMidYMid" viewBox="0 0 1366 657">
<g transform="translate(683,328.5) scale(1,1) translate(-683,-328.5)"><path id="path0" d="M 471.29822702497006 320.8080219628009
c 0 21.604709177832646 -5.286258628618625 6.205607955334909 -11.491866583953534 6.205607955334909
S 448.314493857063 342.4127311406336 448.314493857063 320.8080219628009
s 5.286258628618625 -6.205607955334909 11.491866583953534 -6.205607955334909
S 471.29822702497006 299.20331278496826 471.29822702497006 320.8080219628009
z" fill="none" stroke="none"></path>
<circle cx="0" cy="0" r="6.188842802764389" fill="#ff708e">
  <animateMotion begin="-5.695830252586527s" dur="10s" repeatCount="indefinite">
    <mpath xlink:href="#path0"></mpath>
  </animateMotion>
</circle><path id="path1" d="M 955.5349847017337 340.8861650554732
c 0 31.207383603801368 -7.635849179653525 8.963822950028053 -16.59967212968158 8.963822950028053
S 922.3356404423705 372.0935486592746 922.3356404423705 340.8861650554732
s 7.635849179653525 -8.963822950028053 16.59967212968158 -8.963822950028053
S 955.5349847017337 309.67878145167185 955.5349847017337 340.8861650554732
z" fill="none" stroke="none"></path>
<circle cx="0" cy="0" r="6.701499149802894" fill="#51cacc">
  <animateMotion begin="-5.649448205912249s" dur="10s" repeatCount="indefinite">
    <mpath xlink:href="#path1"></mpath>
  </animateMotion>
</circle><path id="path2" d="M 579.660624587743 86.2786206973839
c 0 34.27307759117221 -8.38596579358469 9.844394627251592 -18.230360420836284 9.844394627251592
S 543.1999037460704 120.55169828855611 543.1999037460704 86.2786206973839
s 8.38596579358469 -9.844394627251592 18.230360420836284 -9.844394627251592
S 579.660624587743 52.00554310621169 579.660624587743 86.2786206973839
z" fill="none" stroke="none"></path>
<circle cx="0" cy="0" r="6.661969194051526" fill="#51cacc">
  <animateMotion begin="-3.8523329346522694s" dur="10s" repeatCount="indefinite">
    <mpath xlink:href="#path2"></mpath>
  </animateMotion>
</circle><path id="path3" d="M 168.4598255271131 237.98684604869936
c 0 27.88074459933332 -6.821884316858152 8.008298980659571 -14.830183297517722 8.008298980659571
S 138.79945893207767 265.86759064803266 138.79945893207767 237.98684604869936
s 6.821884316858152 -8.008298980659571 14.830183297517722 -8.008298980659571
S 168.4598255271131 210.10610144936604 168.4598255271131 237.98684604869936
z" fill="none" stroke="none"></path>
<circle cx="0" cy="0" r="7.547822109479443" fill="#de9dd6">
  <animateMotion begin="-6.850660960926474s" dur="10s" repeatCount="indefinite">
    <mpath xlink:href="#path3"></mpath>
  </animateMotion>
</circle><path id="path4" d="M 927.2045984148092 275.76846504559575
c 0 27.526045520518696 -6.735096244382234 7.906417330361753 -14.641513574743987 7.906417330361753
S 897.9215712653213 303.29451056611447 897.9215712653213 275.76846504559575
s 6.735096244382234 -7.906417330361753 14.641513574743987 -7.906417330361753
S 927.2045984148092 248.24241952507705 927.2045984148092 275.76846504559575
z" fill="none" stroke="none"></path>
<circle cx="0" cy="0" r="6.626877508456099" fill="#9df871">
  <animateMotion begin="-5.382141218255936s" dur="10s" repeatCount="indefinite">
    <mpath xlink:href="#path4"></mpath>
  </animateMotion>
</circle><path id="path5" d="M 596.8102503957015 468.75000505775085
c 0 23.435547057015036 -5.734229599056869 6.731486920631978 -12.465716519688847 6.731486920631978
S 571.8788173563238 492.18555211476587 571.8788173563238 468.75000505775085
s 5.734229599056869 -6.731486920631978 12.465716519688847 -6.731486920631978
S 596.8102503957015 445.31445800073584 596.8102503957015 468.75000505775085
z" fill="none" stroke="none"></path>
<circle cx="0" cy="0" r="7.306135445834536" fill="#e0ff77">
  <animateMotion begin="-3.444164406979835s" dur="10s" repeatCount="indefinite">
    <mpath xlink:href="#path5"></mpath>
  </animateMotion>
</circle><path id="path6" d="M 507.9254517008376 519.2269302690584
c 0 35.81360750863477 -8.762903964878719 10.286887263118496 -19.049791227997215 10.286887263118496
S 469.82586924484315 555.0405377776931 469.82586924484315 519.2269302690584
s 8.762903964878719 -10.286887263118496 19.049791227997215 -10.286887263118496
S 507.9254517008376 483.41332276042357 507.9254517008376 519.2269302690584
z" fill="none" stroke="none"></path>
<circle cx="0" cy="0" r="4.080385542760587" fill="#51cacc">
  <animateMotion begin="-8.012662368005682s" dur="10s" repeatCount="indefinite">
    <mpath xlink:href="#path6"></mpath>
  </animateMotion>
</circle><path id="path7" d="M 62.027311104160866 160.17086503620104
c 0 31.15487650755761 -7.623001698657712 8.948741124511228 -16.57174282316894 8.948741124511228
S 28.883825457822986 191.32574154375865 28.883825457822986 160.17086503620104
s 7.623001698657712 -8.948741124511228 16.57174282316894 -8.948741124511228
S 62.027311104160866 129.01598852864342 62.027311104160866 160.17086503620104
z" fill="none" stroke="none"></path>
<circle cx="0" cy="0" r="4.794857927127135" fill="#9df871">
  <animateMotion begin="-5.906552886187592s" dur="10s" repeatCount="indefinite">
    <mpath xlink:href="#path7"></mpath>
  </animateMotion>
</circle><path id="path8" d="M 795.0223801573609 473.5845885040204
c 0 26.049098228583798 -6.373715524015184 7.482187789061304 -13.855903313076487 7.482187789061304
S 767.3105735312079 499.6336867326042 767.3105735312079 473.5845885040204
s 6.373715524015184 -7.482187789061304 13.855903313076487 -7.482187789061304
S 795.0223801573609 447.53549027543664 795.0223801573609 473.5845885040204
z" fill="none" stroke="none"></path>
<circle cx="0" cy="0" r="6.72871698578179" fill="#9df871">
  <animateMotion begin="-1.4129520162820697s" dur="10s" repeatCount="indefinite">
    <mpath xlink:href="#path8"></mpath>
  </animateMotion>
</circle><path id="path9" d="M 1303.78396411701 142.03170332654204
c 0 31.07940356991676 -7.604534916043462 8.927062727529282 -16.531597643572745 8.927062727529282
S 1270.7207688298647 173.1111068964588 1270.7207688298647 142.03170332654204
s 7.604534916043462 -8.927062727529282 16.531597643572745 -8.927062727529282
S 1303.78396411701 110.95229975662528 1303.78396411701 142.03170332654204
z" fill="none" stroke="none"></path>
<circle cx="0" cy="0" r="7.593455259917557" fill="#51cacc">
  <animateMotion begin="-6.095502800734181s" dur="10s" repeatCount="indefinite">
    <mpath xlink:href="#path9"></mpath>
  </animateMotion>
</circle><path id="path10" d="M 871.2947231880528 593.7184432193087
c 0 26.759484280091566 -6.547533387681978 7.686234846409279 -14.233768234091258 7.686234846409279
S 842.8271867198703 620.4779274994003 842.8271867198703 593.7184432193087
s 6.547533387681978 -7.686234846409279 14.233768234091258 -7.686234846409279
S 871.2947231880528 566.9589589392172 871.2947231880528 593.7184432193087
z" fill="none" stroke="none"></path>
<circle cx="0" cy="0" r="7.279477336594634" fill="#51cacc">
  <animateMotion begin="-3.401672981034536s" dur="10s" repeatCount="indefinite">
    <mpath xlink:href="#path10"></mpath>
  </animateMotion>
</circle><path id="path11" d="M 1233.9895980623717 225.28425676606008
c 0 32.22085044818089 -7.883825109661282 9.25492512873281 -17.138750238394092 9.25492512873281
S 1199.7120975855835 257.505107214241 1199.7120975855835 225.28425676606008
s 7.883825109661282 -9.25492512873281 17.138750238394092 -9.25492512873281
S 1233.9895980623717 193.06340631787918 1233.9895980623717 225.28425676606008
z" fill="none" stroke="none"></path>
<circle cx="0" cy="0" r="7.2882116740929455" fill="#de9dd6">
  <animateMotion begin="-8.071796285749526s" dur="10s" repeatCount="indefinite">
    <mpath xlink:href="#path11"></mpath>
  </animateMotion>
</circle><path id="path12" d="M 819.8278249299694 438.08952716184837
c 0 19.30875877411217 -4.724483529835956 5.546132839372644 -10.2706163692086 5.546132839372644
S 799.2865921915522 457.39828593596053 799.2865921915522 438.08952716184837
s 4.724483529835956 -5.546132839372644 10.2706163692086 -5.546132839372644
S 819.8278249299694 418.7807683877362 819.8278249299694 438.08952716184837
z" fill="none" stroke="none"></path>
<circle cx="0" cy="0" r="5.964104681229758" fill="#9df871">
  <animateMotion begin="-2.8870254264721984s" dur="10s" repeatCount="indefinite">
    <mpath xlink:href="#path12"></mpath>
  </animateMotion>
</circle><path id="path13" d="M 404.1741763517653 45.63235616107324
c 0 20.763847574760845 -5.0805158959521215 5.964083877856839 -11.044599773808962 5.964083877856839
S 382.0849768041474 66.39620373583409 382.0849768041474 45.63235616107324
s 5.0805158959521215 -5.964083877856839 11.044599773808962 -5.964083877856839
S 404.1741763517653 24.868508586312394 404.1741763517653 45.63235616107324
z" fill="none" stroke="none"></path>
<circle cx="0" cy="0" r="6.903661727981546" fill="#de9dd6">
  <animateMotion begin="-3.8344480300375317s" dur="10s" repeatCount="indefinite">
    <mpath xlink:href="#path13"></mpath>
  </animateMotion>
</circle><path id="path14" d="M 703.8291121043037 156.04003179130916
c 0 19.901207082785348 -4.869444286213436 5.716304162076642 -10.585748448290078 5.716304162076642
S 682.6576152077234 175.9412388740945 682.6576152077234 156.04003179130916
s 4.869444286213436 -5.716304162076642 10.585748448290078 -5.716304162076642
S 703.8291121043037 136.13882470852383 703.8291121043037 156.04003179130916
z" fill="none" stroke="none"></path>
<circle cx="0" cy="0" r="5.335756767770488" fill="#de9dd6">
  <animateMotion begin="-6.472628265275187s" dur="10s" repeatCount="indefinite">
    <mpath xlink:href="#path14"></mpath>
  </animateMotion>
</circle><path id="path15" d="M 204.34902449130618 185.29588465819307
c 0 23.85179051115379 -5.836076401665289 6.851046210650558 -12.687122612315846 6.851046210650558
S 178.9747792666745 209.14767516934685 178.9747792666745 185.29588465819307
s 5.836076401665289 -6.851046210650558 12.687122612315846 -6.851046210650558
S 204.34902449130618 161.4440941470393 204.34902449130618 185.29588465819307
z" fill="none" stroke="none"></path>
<circle cx="0" cy="0" r="5.381890097108428" fill="#51cacc">
  <animateMotion begin="-5.930697860426289s" dur="10s" repeatCount="indefinite">
    <mpath xlink:href="#path15"></mpath>
  </animateMotion>
</circle><path id="path16" d="M 499.86438208570274 584.0433887548223
c 0 24.37980922534046 -5.965272470030111 7.002711160470132 -12.967983630500244 7.002711160470132
S 473.9284148247022 608.4231979801627 473.9284148247022 584.0433887548223
s 5.965272470030111 -7.002711160470132 12.967983630500244 -7.002711160470132
S 499.86438208570274 559.6635795294819 499.86438208570274 584.0433887548223
z" fill="none" stroke="none"></path>
<circle cx="0" cy="0" r="6.730728585420754" fill="#ff708e">
  <animateMotion begin="-7.184861938745881s" dur="10s" repeatCount="indefinite">
    <mpath xlink:href="#path16"></mpath>
  </animateMotion>
</circle><path id="path17" d="M 22.159030190506684 35.71363104605775
c 0 30.7406520287596 -7.521648900653944 8.829761752941588 -16.351410653595533 8.829761752941588
S -10.54379111668438 66.45428307481735 -10.54379111668438 35.71363104605775
s 7.521648900653944 -8.829761752941588 16.351410653595533 -8.829761752941588
S 22.159030190506684 4.972979017298147 22.159030190506684 35.71363104605775
z" fill="none" stroke="none"></path>
<circle cx="0" cy="0" r="5.631080509937605" fill="#de9dd6">
  <animateMotion begin="-4.445447298498202s" dur="10s" repeatCount="indefinite">
    <mpath xlink:href="#path17"></mpath>
  </animateMotion>
</circle><path id="path18" d="M 403.84822696011366 53.637297769326075
c 0 29.043018254603243 -7.106270423998666 8.342143541215826 -15.448413965214492 8.342143541215826
S 372.95139902968464 82.68031602392932 372.95139902968464 53.637297769326075
s 7.106270423998666 -8.342143541215826 15.448413965214492 -8.342143541215826
S 403.84822696011366 24.59427951472283 403.84822696011366 53.637297769326075
z" fill="none" stroke="none"></path>
<circle cx="0" cy="0" r="5.334032194029562" fill="#51cacc">
  <animateMotion begin="-3.856369525932213s" dur="10s" repeatCount="indefinite">
    <mpath xlink:href="#path18"></mpath>
  </animateMotion>
</circle><path id="path19" d="M 1061.862253118413 596.552520996262
c 0 36.17134230629059 -8.850434819624294 10.389640875211128 -19.240075694835422 10.389640875211128
S 1023.3821017287421 632.7238633025527 1023.3821017287421 596.552520996262
s 8.850434819624294 -10.389640875211128 19.240075694835422 -10.389640875211128
S 1061.862253118413 560.3811786899714 1061.862253118413 596.552520996262
z" fill="none" stroke="none"></path>
<circle cx="0" cy="0" r="4.776759964934392" fill="#9df871">
  <animateMotion begin="-9.732110290903526s" dur="10s" repeatCount="indefinite">
    <mpath xlink:href="#path19"></mpath>
  </animateMotion>
</circle><path id="path20" d="M 1075.8889067675043 329.5545247066849
c 0 19.081960292335026 -4.66899028429474 5.4809885946068695 -10.149978878901608 5.4809885946068695
S 1055.5889490097009 348.6364849990199 1055.5889490097009 329.5545247066849
s 4.66899028429474 -5.4809885946068695 10.149978878901608 -5.4809885946068695
S 1075.8889067675043 310.4725644143499 1075.8889067675043 329.5545247066849
z" fill="none" stroke="none"></path>
<circle cx="0" cy="0" r="5.610695280439586" fill="#ff708e">
  <animateMotion begin="-5.984262009365953s" dur="10s" repeatCount="indefinite">
    <mpath xlink:href="#path20"></mpath>
  </animateMotion>
</circle><path id="path21" d="M 72.5752692794119 585.0394466382971
c 0 20.762486190767408 -5.0801827913579825 5.963692842028936 -11.04387563338692 5.963692842028936
S 50.48751801263806 605.8019328290645 50.48751801263806 585.0394466382971
s 5.0801827913579825 -5.963692842028936 11.04387563338692 -5.963692842028936
S 72.5752692794119 564.2769604475297 72.5752692794119 585.0394466382971
z" fill="none" stroke="none"></path>
<circle cx="0" cy="0" r="6.281580175804044" fill="#de9dd6">
  <animateMotion begin="-8.842247788696946s" dur="10s" repeatCount="indefinite">
    <mpath xlink:href="#path21"></mpath>
  </animateMotion>
</circle><path id="path22" d="M 550.150141338261 514.989665433954
c 0 36.54325762249251 -8.941435375716251 10.496467614971253 -19.437902990687505 10.496467614971253
S 511.27433535688607 551.5329230564465 511.27433535688607 514.989665433954
s 8.941435375716251 -10.496467614971253 19.437902990687505 -10.496467614971253
S 550.150141338261 478.4464078114615 550.150141338261 514.989665433954
z" fill="none" stroke="none"></path>
<circle cx="0" cy="0" r="4.166627261132677" fill="#de9dd6">
  <animateMotion begin="-5.684923209945405s" dur="10s" repeatCount="indefinite">
    <mpath xlink:href="#path22"></mpath>
  </animateMotion>
</circle><path id="path23" d="M 973.3466779243856 608.9065416075839
c 0 36.75210039250232 -8.992535202420779 10.556454368059178 -19.548989570479957 10.556454368059178
S 934.2486987834257 645.6586420000863 934.2486987834257 608.9065416075839
s 8.992535202420779 -10.556454368059178 19.548989570479957 -10.556454368059178
S 973.3466779243856 572.1544412150815 973.3466779243856 608.9065416075839
z" fill="none" stroke="none"></path>
<circle cx="0" cy="0" r="6.238612541301569" fill="#de9dd6">
  <animateMotion begin="-4.192662495237318s" dur="10s" repeatCount="indefinite">
    <mpath xlink:href="#path23"></mpath>
  </animateMotion>
</circle><path id="path24" d="M 1026.9233505300876 119.0839674435732
c 0 27.980995403491722 -6.846413768939463 8.037094424407197 -14.88350819334666 8.037094424407197
S 997.1563341433942 147.06496284706492 997.1563341433942 119.0839674435732
s 6.846413768939463 -8.037094424407197 14.88350819334666 -8.037094424407197
S 1026.9233505300876 91.10297204008148 1026.9233505300876 119.0839674435732
z" fill="none" stroke="none"></path>
<circle cx="0" cy="0" r="6.893054473074321" fill="#51cacc">
  <animateMotion begin="-9.80417657674878s" dur="10s" repeatCount="indefinite">
    <mpath xlink:href="#path24"></mpath>
  </animateMotion>
</circle><path id="path25" d="M 473.5096843734233 221.99564747214725
c 0 19.570839625877973 -4.788609695693546 5.621411381901121 -10.410021077594667 5.621411381901121
S 452.689642218234 241.56648709802522 452.689642218234 221.99564747214725
s 4.788609695693546 -5.621411381901121 10.410021077594667 -5.621411381901121
S 473.5096843734233 202.4248078462693 473.5096843734233 221.99564747214725
z" fill="none" stroke="none"></path>
<circle cx="0" cy="0" r="5.5913973006509625" fill="#9df871">
  <animateMotion begin="-8.552189885327419s" dur="10s" repeatCount="indefinite">
    <mpath xlink:href="#path25"></mpath>
  </animateMotion>
</circle><path id="path26" d="M 402.2489271606175 270.79769298871565
c 0 25.57363155780082 -6.257377934355519 7.3456175751130015 -13.60299550946852 7.3456175751130015
S 375.0429361416804 296.37132454651646 375.0429361416804 270.79769298871565
s 6.257377934355519 -7.3456175751130015 13.60299550946852 -7.3456175751130015
S 402.2489271606175 245.22406143091484 402.2489271606175 270.79769298871565
z" fill="none" stroke="none"></path>
<circle cx="0" cy="0" r="6.664591274377411" fill="#51cacc">
  <animateMotion begin="-8.71297001043839s" dur="10s" repeatCount="indefinite">
    <mpath xlink:href="#path26"></mpath>
  </animateMotion>
</circle><path id="path27" d="M 292.6814611918503 545.290123447982
c 0 29.29390357898191 -7.167657258687063 8.414206347154378 -15.581863605841441 8.414206347154378
S 261.51773398016746 574.5840270269639 261.51773398016746 545.290123447982
s 7.167657258687063 -8.414206347154378 15.581863605841441 -8.414206347154378
S 292.6814611918503 515.996219869 292.6814611918503 545.290123447982
z" fill="none" stroke="none"></path>
<circle cx="0" cy="0" r="6.333326802257404" fill="#e0ff77">
  <animateMotion begin="-6.0583096652005475s" dur="10s" repeatCount="indefinite">
    <mpath xlink:href="#path27"></mpath>
  </animateMotion>
</circle><path id="path28" d="M 1037.8300804698233 542.0874284697485
c 0 30.23076171940386 -7.396888505811582 8.68330389812664 -16.080192403938224 8.68330389812664
S 1005.6696956619469 572.3181901891523 1005.6696956619469 542.0874284697485
s 7.396888505811582 -8.68330389812664 16.080192403938224 -8.68330389812664
S 1037.8300804698233 511.85666675034463 1037.8300804698233 542.0874284697485
z" fill="none" stroke="none"></path>
<circle cx="0" cy="0" r="4.969367602794293" fill="#51cacc">
  <animateMotion begin="-6.67237729597465s" dur="10s" repeatCount="indefinite">
    <mpath xlink:href="#path28"></mpath>
  </animateMotion>
</circle><path id="path29" d="M 494.05909252459656 6.744674698820805
c 0 21.636678479026116 -5.294080904442559 6.21479062695431 -11.508871531396869 6.21479062695431
S 471.0413494618028 28.381353177846922 471.0413494618028 6.744674698820805
s 5.294080904442559 -6.21479062695431 11.508871531396869 -6.21479062695431
S 494.05909252459656 -14.892003780205311 494.05909252459656 6.744674698820805
z" fill="none" stroke="none"></path>
<circle cx="0" cy="0" r="6.64246515118014" fill="#ff708e">
  <animateMotion begin="-9.24358453005221s" dur="10s" repeatCount="indefinite">
    <mpath xlink:href="#path29"></mpath>
  </animateMotion>
</circle><path id="path30" d="M 47.78148480795798 53.79888600062547
c 0 31.27320994733795 -7.651955625412476 8.98273051678856 -16.634686142201037 8.98273051678856
S 14.51211252355591 85.07209594796342 14.51211252355591 53.79888600062547
s 7.651955625412476 -8.98273051678856 16.634686142201037 -8.98273051678856
S 47.78148480795798 22.525676053287523 47.78148480795798 53.79888600062547
z" fill="none" stroke="none"></path>
<circle cx="0" cy="0" r="5.976662509467428" fill="#51cacc">
  <animateMotion begin="-6.038306414488687s" dur="10s" repeatCount="indefinite">
    <mpath xlink:href="#path30"></mpath>
  </animateMotion>
</circle><path id="path31" d="M 96.60690651169335 196.19481218654465
c 0 23.370616652842543 -5.718342372504026 6.712836698156901 -12.431179070660928 6.712836698156901
S 71.74454837037149 219.5654288393872 71.74454837037149 196.19481218654465
s 5.718342372504026 -6.712836698156901 12.431179070660928 -6.712836698156901
S 96.60690651169335 172.8241955337021 96.60690651169335 196.19481218654465
z" fill="none" stroke="none"></path>
<circle cx="0" cy="0" r="7.865766260800144" fill="#ff708e">
  <animateMotion begin="-1.295520534976169s" dur="10s" repeatCount="indefinite">
    <mpath xlink:href="#path31"></mpath>
  </animateMotion>
</circle><path id="path32" d="M 488.85230472769706 318.37228856881524
c 0 22.58861263642166 -5.527000964230831 6.488218523227499 -12.015219487458332 6.488218523227499
S 464.82186575278035 340.9609012052369 464.82186575278035 318.37228856881524
s 5.527000964230831 -6.488218523227499 12.015219487458332 -6.488218523227499
S 488.85230472769706 295.7836759323936 488.85230472769706 318.37228856881524
z" fill="none" stroke="none"></path>
<circle cx="0" cy="0" r="5.749571143005417" fill="#de9dd6">
  <animateMotion begin="-1.6233170567338084s" dur="10s" repeatCount="indefinite">
    <mpath xlink:href="#path32"></mpath>
  </animateMotion>
</circle><path id="path33" d="M 242.99522747267923 106.68728135290378
c 0 20.210475639394737 -4.945116379851903 5.805136619826148 -10.750252999678052 5.805136619826148
S 221.49472147332312 126.89775699229853 221.49472147332312 106.68728135290378
s 4.945116379851903 -5.805136619826148 10.750252999678052 -5.805136619826148
S 242.99522747267923 86.47680571350904 242.99522747267923 106.68728135290378
z" fill="none" stroke="none"></path>
<circle cx="0" cy="0" r="4.145019295483039" fill="#ff708e">
  <animateMotion begin="-1.2990857763486297s" dur="10s" repeatCount="indefinite">
    <mpath xlink:href="#path33"></mpath>
  </animateMotion>
</circle><path id="path34" d="M 467.1366402439895 261.7838593428617
c 0 19.55823149795794 -4.785524728223751 5.6177898983496215 -10.403314626573373 5.6177898983496215
S 446.33001099084277 281.34209084081965 446.33001099084277 261.7838593428617
s 4.785524728223751 -5.6177898983496215 10.403314626573373 -5.6177898983496215
S 467.1366402439895 242.22562784490378 467.1366402439895 261.7838593428617
z" fill="none" stroke="none"></path>
<circle cx="0" cy="0" r="7.6994028564027" fill="#de9dd6">
  <animateMotion begin="-4.799090480281134s" dur="10s" repeatCount="indefinite">
    <mpath xlink:href="#path34"></mpath>
  </animateMotion>
</circle><path id="path35" d="M 142.8257436183506 100.98437470514993
c 0 25.142134411174766 -6.151798845287442 7.221676905337433 -13.373475750624875 7.221676905337433
S 116.07879211710086 126.1265091163247 116.07879211710086 100.98437470514993
s 6.151798845287442 -7.221676905337433 13.373475750624875 -7.221676905337433
S 142.8257436183506 75.84224029397517 142.8257436183506 100.98437470514993
z" fill="none" stroke="none"></path>
<circle cx="0" cy="0" r="4.270146249087717" fill="#51cacc">
  <animateMotion begin="-8.970498834111789s" dur="10s" repeatCount="indefinite">
    <mpath xlink:href="#path35"></mpath>
  </animateMotion>
</circle><path id="path36" d="M 1035.164217859427 645.2182677841936
c 0 23.059541332513664 -5.6422281983810025 6.6234852763603085 -12.265713474741311 6.6234852763603085
S 1010.6327909099444 668.2778091167072 1010.6327909099444 645.2182677841936
s 5.6422281983810025 -6.6234852763603085 12.265713474741311 -6.6234852763603085
S 1035.164217859427 622.15872645168 1035.164217859427 645.2182677841936
z" fill="none" stroke="none"></path>
<circle cx="0" cy="0" r="7.676640808181149" fill="#9df871">
  <animateMotion begin="-2.598914488773867s" dur="10s" repeatCount="indefinite">
    <mpath xlink:href="#path36"></mpath>
  </animateMotion>
</circle><path id="path37" d="M 776.6389489961521 123.0532742442111
c 0 27.05402541121323 -6.61960196231813 7.7708370861995455 -14.390439048517676 7.7708370861995455
S 747.8580708991167 150.10729965542433 747.8580708991167 123.0532742442111
s 6.61960196231813 -7.7708370861995455 14.390439048517676 -7.7708370861995455
S 776.6389489961521 95.99924883299786 776.6389489961521 123.0532742442111
z" fill="none" stroke="none"></path>
<circle cx="0" cy="0" r="6.608533299909155" fill="#e0ff77">
  <animateMotion begin="-8.732531663245915s" dur="10s" repeatCount="indefinite">
    <mpath xlink:href="#path37"></mpath>
  </animateMotion>
</circle><path id="path38" d="M 1200.52869694593 308.3800233878223
c 0 35.25345974107735 -8.625846532391266 10.125993755415836 -18.751840287807102 10.125993755415836
S 1163.025016370316 343.6334831288996 1163.025016370316 308.3800233878223
s 8.625846532391266 -10.125993755415836 18.751840287807102 -10.125993755415836
S 1200.52869694593 273.12656364674496 1200.52869694593 308.3800233878223
z" fill="none" stroke="none"></path>
<circle cx="0" cy="0" r="7.9446368619493475" fill="#ff708e">
  <animateMotion begin="-6.887143967536571s" dur="10s" repeatCount="indefinite">
    <mpath xlink:href="#path38"></mpath>
  </animateMotion>
</circle><path id="path39" d="M 723.7998970343812 597.6705542268725
c 0 33.15160010192719 -8.11156172706729 9.522268114383342 -17.633829841450634 9.522268114383342
S 688.5322373514799 630.8221543287997 688.5322373514799 597.6705542268725
s 8.11156172706729 -9.522268114383342 17.633829841450634 -9.522268114383342
S 723.7998970343812 564.5189541249453 723.7998970343812 597.6705542268725
z" fill="none" stroke="none"></path>
<circle cx="0" cy="0" r="6.6367796180083785" fill="#e0ff77">
  <animateMotion begin="-8.569799307932367s" dur="10s" repeatCount="indefinite">
    <mpath xlink:href="#path39"></mpath>
  </animateMotion>
</circle><path id="path40" d="M 511.2938611345702 52.883574344007755
c 0 36.50626291260818 -8.932383478616893 10.485841474898093 -19.418224953514986 10.485841474898093
S 472.4574112275402 89.38983725661593 472.4574112275402 52.883574344007755
s 8.932383478616893 -10.485841474898093 19.418224953514986 -10.485841474898093
S 511.2938611345702 16.377311431399576 511.2938611345702 52.883574344007755
z" fill="none" stroke="none"></path>
<circle cx="0" cy="0" r="7.2684285972646085" fill="#e0ff77">
  <animateMotion begin="-1.5438740625404201s" dur="10s" repeatCount="indefinite">
    <mpath xlink:href="#path40"></mpath>
  </animateMotion>
</circle><path id="path41" d="M 847.4601405930774 192.41827193126946
c 0 24.690186504310994 -6.041215846799498 7.091862081025498 -13.133077927824996 7.091862081025498
S 821.1939847374275 217.10845843558045 821.1939847374275 192.41827193126946
s 6.041215846799498 -7.091862081025498 13.133077927824996 -7.091862081025498
S 847.4601405930774 167.72808542695847 847.4601405930774 192.41827193126946
z" fill="none" stroke="none"></path>
<circle cx="0" cy="0" r="6.79995354382869" fill="#ff708e">
  <animateMotion begin="-8.944071761948445s" dur="10s" repeatCount="indefinite">
    <mpath xlink:href="#path41"></mpath>
  </animateMotion>
</circle><path id="path42" d="M 1313.3309476544318 542.4776140632001
c 0 31.680675380312156 -7.751654614331697 9.099768460302428 -16.851423074634123 9.099768460302428
S 1279.6281015051636 574.1582894435123 1279.6281015051636 542.4776140632001
s 7.751654614331697 -9.099768460302428 16.851423074634123 -9.099768460302428
S 1313.3309476544318 510.79693868288797 1313.3309476544318 542.4776140632001
z" fill="none" stroke="none"></path>
<circle cx="0" cy="0" r="7.174613203982528" fill="#51cacc">
  <animateMotion begin="-7.2056360239227875s" dur="10s" repeatCount="indefinite">
    <mpath xlink:href="#path42"></mpath>
  </animateMotion>
</circle><path id="path43" d="M 450.883386768474 136.60480556704476
c 0 26.22793434895173 -6.417473298147764 7.533555610869115 -13.951028909016879 7.533555610869115
S 422.98132895044023 162.83273991599648 422.98132895044023 136.60480556704476
s 6.417473298147764 -7.533555610869115 13.951028909016879 -7.533555610869115
S 450.883386768474 110.37687121809303 450.883386768474 136.60480556704476
z" fill="none" stroke="none"></path>
<circle cx="0" cy="0" r="6.8177309966977875" fill="#9df871">
  <animateMotion begin="-4.67468986935163s" dur="10s" repeatCount="indefinite">
    <mpath xlink:href="#path43"></mpath>
  </animateMotion>
</circle><path id="path44" d="M 1152.3748443937843 583.7472824533498
c 0 24.054223137928325 -5.885607789067568 6.909191752383668 -12.794799541451237 6.909191752383668
S 1126.7852453108817 607.8015055912782 1126.7852453108817 583.7472824533498
s 5.885607789067568 -6.909191752383668 12.794799541451237 -6.909191752383668
S 1152.3748443937843 559.6930593154215 1152.3748443937843 583.7472824533498
z" fill="none" stroke="none"></path>
<circle cx="0" cy="0" r="6.691879567856997" fill="#9df871">
  <animateMotion begin="-8.63291732470579s" dur="10s" repeatCount="indefinite">
    <mpath xlink:href="#path44"></mpath>
  </animateMotion>
</circle><path id="path45" d="M 1247.069821644242 78.49866975130355
c 0 20.938578977423557 -5.123269324263211 6.014272685004639 -11.137542009267849 6.014272685004639
S 1224.7947376257061 99.43724872872711 1224.7947376257061 78.49866975130355
s 5.123269324263211 -6.014272685004639 11.137542009267849 -6.014272685004639
S 1247.069821644242 57.56009077387999 1247.069821644242 78.49866975130355
z" fill="none" stroke="none"></path>
<circle cx="0" cy="0" r="7.184003613950499" fill="#ff708e">
  <animateMotion begin="-7.130264352779296s" dur="10s" repeatCount="indefinite">
    <mpath xlink:href="#path45"></mpath>
  </animateMotion>
</circle><path id="path46" d="M 798.1583487980722 322.3253782725208
c 0 31.639644110517978 -7.741615048318228 9.087982882808355 -16.82959793112658 9.087982882808355
S 764.499152935819 353.9650223830388 764.499152935819 322.3253782725208
s 7.741615048318228 -9.087982882808355 16.82959793112658 -9.087982882808355
S 798.1583487980722 290.68573416200286 798.1583487980722 322.3253782725208
z" fill="none" stroke="none"></path>
<circle cx="0" cy="0" r="4.277572514799543" fill="#de9dd6">
  <animateMotion begin="-5.635501738877595s" dur="10s" repeatCount="indefinite">
    <mpath xlink:href="#path46"></mpath>
  </animateMotion>
</circle><path id="path47" d="M 255.17830898995481 436.82006233975227
c 0 23.70119356528696 -5.799228212782978 6.807789641093063 -12.607017853876041 6.807789641093063
S 229.96427328220273 460.52125590503925 229.96427328220273 436.82006233975227
s 5.799228212782978 -6.807789641093063 12.607017853876041 -6.807789641093063
S 255.17830898995481 413.1188687744653 255.17830898995481 436.82006233975227
z" fill="none" stroke="none"></path>
<circle cx="0" cy="0" r="6.27158545485894" fill="#9df871">
  <animateMotion begin="-1.0044558253162528s" dur="10s" repeatCount="indefinite">
    <mpath xlink:href="#path47"></mpath>
  </animateMotion>
</circle><path id="path48" d="M 554.1982139185556 392.9981259243928
c 0 32.38726914139603 -7.924544577150091 9.302726242741413 -17.227270819891505 9.302726242741413
S 519.7436722787726 425.3853950657888 519.7436722787726 392.9981259243928
s 7.924544577150091 -9.302726242741413 17.227270819891505 -9.302726242741413
S 554.1982139185556 360.6108567829968 554.1982139185556 392.9981259243928
z" fill="none" stroke="none"></path>
<circle cx="0" cy="0" r="7.0025528902252185" fill="#e0ff77">
  <animateMotion begin="-0.5470883285613959s" dur="10s" repeatCount="indefinite">
    <mpath xlink:href="#path48"></mpath>
  </animateMotion>
</circle><path id="path49" d="M 1016.9174052462447 140.09217403249744
c 0 34.07366511743712 -8.337173379798443 9.78711657628513 -18.124289956083576 9.78711657628513
S 980.6688253340776 174.16583914993456 980.6688253340776 140.09217403249744
s 8.337173379798443 -9.78711657628513 18.124289956083576 -9.78711657628513
S 1016.9174052462447 106.01850891506032 1016.9174052462447 140.09217403249744
z" fill="none" stroke="none"></path>
<circle cx="0" cy="0" r="4.331467728582602" fill="#de9dd6">
  <animateMotion begin="-3.4536169026551766s" dur="10s" repeatCount="indefinite">
    <mpath xlink:href="#path49"></mpath>
  </animateMotion>
</circle><path id="path50" d="M 1157.4837157851136 42.17952986329427
c 0 20.94116277240507 -5.123901529418261 6.0150148388823075 -11.138916368300569 6.0150148388823075
S 1135.2058830485123 63.12069263569934 1135.2058830485123 42.17952986329427
s 5.123901529418261 -6.0150148388823075 11.138916368300569 -6.0150148388823075
S 1157.4837157851136 21.2383670908892 1157.4837157851136 42.17952986329427
z" fill="none" stroke="none"></path>
<circle cx="0" cy="0" r="7.837387537154187" fill="#de9dd6">
  <animateMotion begin="-8.036118856890411s" dur="10s" repeatCount="indefinite">
    <mpath xlink:href="#path50"></mpath>
  </animateMotion>
</circle><path id="path51" d="M 133.71618317513062 111.41123630787479
c 0 31.52159388011665 -7.71273041747535 9.054074837905846 -16.766805255381197 9.054074837905846
S 100.18257266436824 142.93283018799144 100.18257266436824 111.41123630787479
s 7.71273041747535 -9.054074837905846 16.766805255381197 -9.054074837905846
S 133.71618317513062 79.88964242775813 133.71618317513062 111.41123630787479
z" fill="none" stroke="none"></path>
<circle cx="0" cy="0" r="5.212127111081733" fill="#9df871">
  <animateMotion begin="-2.361350075344284s" dur="10s" repeatCount="indefinite">
    <mpath xlink:href="#path51"></mpath>
  </animateMotion>
</circle><path id="path52" d="M 510.9923380947942 220.4084147920116
c 0 25.725846825192363 -6.29462209552579 7.3893389817041895 -13.68396107722998 7.3893389817041895
S 483.62441594033425 246.13426161720395 483.62441594033425 220.4084147920116
s 6.29462209552579 -7.3893389817041895 13.68396107722998 -7.3893389817041895
S 510.9923380947942 194.68256796681925 510.9923380947942 220.4084147920116
z" fill="none" stroke="none"></path>
<circle cx="0" cy="0" r="5.0768555758658485" fill="#de9dd6">
  <animateMotion begin="-0.6738175124172008s" dur="10s" repeatCount="indefinite">
    <mpath xlink:href="#path52"></mpath>
  </animateMotion>
</circle><path id="path53" d="M 1164.4645148700654 256.62612728349825
c 0 19.166873180832873 -4.689766842118681 5.505378466834974 -10.195145308953656 5.505378466834974
S 1144.074224252158 275.7930004643311 1144.074224252158 256.62612728349825
s 4.689766842118681 -5.505378466834974 10.195145308953656 -5.505378466834974
S 1164.4645148700654 237.45925410266537 1164.4645148700654 256.62612728349825
z" fill="none" stroke="none"></path>
<circle cx="0" cy="0" r="4.988411261114535" fill="#de9dd6">
  <animateMotion begin="-0.6746121224798074s" dur="10s" repeatCount="indefinite">
    <mpath xlink:href="#path53"></mpath>
  </animateMotion>
</circle><path id="path54" d="M 959.9861897676941 628.3514893486434
c 0 28.744652703485524 -7.033266087023053 8.256442797809672 -15.289708884832724 8.256442797809672
S 929.4067719980286 657.0961420521289 929.4067719980286 628.3514893486434
s 7.033266087023053 -8.256442797809672 15.289708884832724 -8.256442797809672
S 959.9861897676941 599.606836645158 959.9861897676941 628.3514893486434
z" fill="none" stroke="none"></path>
<circle cx="0" cy="0" r="4.360967028189261" fill="#9df871">
  <animateMotion begin="-7.4942230848192315s" dur="10s" repeatCount="indefinite">
    <mpath xlink:href="#path54"></mpath>
  </animateMotion>
</circle><path id="path55" d="M 1217.9864908033835 79.39984888552246
c 0 24.940652867997656 -6.102500169829213 7.163804547190817 -13.26630471702003 7.163804547190817
S 1191.4538813693437 104.34050175352012 1191.4538813693437 79.39984888552246
s 6.102500169829213 -7.163804547190817 13.26630471702003 -7.163804547190817
S 1217.9864908033835 54.4591960175248 1217.9864908033835 79.39984888552246
z" fill="none" stroke="none"></path>
<circle cx="0" cy="0" r="6.82267065012784" fill="#de9dd6">
  <animateMotion begin="-9.943945411125279s" dur="10s" repeatCount="indefinite">
    <mpath xlink:href="#path55"></mpath>
  </animateMotion>
</circle><path id="path56" d="M 873.3258332860845 156.43972446967638
c 0 28.35613445047023 -6.938203110221439 8.144847129390385 -15.083050239611824 8.144847129390385
S 843.1597328068609 184.7958589201466 843.1597328068609 156.43972446967638
s 6.938203110221439 -8.144847129390385 15.083050239611824 -8.144847129390385
S 873.3258332860845 128.08359001920616 873.3258332860845 156.43972446967638
z" fill="none" stroke="none"></path>
<circle cx="0" cy="0" r="7.441294291485731" fill="#de9dd6">
  <animateMotion begin="-6.537022874878s" dur="10s" repeatCount="indefinite">
    <mpath xlink:href="#path56"></mpath>
  </animateMotion>
</circle><path id="path57" d="M 268.51240190931856 174.80712944081512
c 0 22.186623109669277 -5.428641824706312 6.372753446394367 -11.801395271100679 6.372753446394367
S 244.9096113671172 196.9937525504844 244.9096113671172 174.80712944081512
s 5.428641824706312 -6.372753446394367 11.801395271100679 -6.372753446394367
S 268.51240190931856 152.62050633114583 268.51240190931856 174.80712944081512
z" fill="none" stroke="none"></path>
<circle cx="0" cy="0" r="7.170031060697073" fill="#ff708e">
  <animateMotion begin="-0.8421414720015452s" dur="10s" repeatCount="indefinite">
    <mpath xlink:href="#path57"></mpath>
  </animateMotion>
</circle><path id="path58" d="M 99.08746850596596 566.7482460200957
c 0 30.728229801210652 -7.518609419445158 8.826193666305187 -16.344803085750346 8.826193666305187
S 66.39786233446527 597.4764758213064 66.39786233446527 566.7482460200957
s 7.518609419445158 -8.826193666305187 16.344803085750346 -8.826193666305187
S 99.08746850596596 536.0200162188851 99.08746850596596 566.7482460200957
z" fill="none" stroke="none"></path>
<circle cx="0" cy="0" r="6.0511386210055935" fill="#51cacc">
  <animateMotion begin="-1.910049770790756s" dur="10s" repeatCount="indefinite">
    <mpath xlink:href="#path58"></mpath>
  </animateMotion>
</circle><path id="path59" d="M 1243.9265857302616 418.59722791642747
c 0 32.13271679106878 -7.862260491431721 9.2296101421155 -17.09187063354722 9.2296101421155
S 1209.7428444631673 450.72994470749626 1209.7428444631673 418.59722791642747
s 7.862260491431721 -9.2296101421155 17.09187063354722 -9.2296101421155
S 1243.9265857302616 386.4645111253587 1243.9265857302616 418.59722791642747
z" fill="none" stroke="none"></path>
<circle cx="0" cy="0" r="7.4163005312858425" fill="#e0ff77">
  <animateMotion begin="-4.027747083445242s" dur="10s" repeatCount="indefinite">
    <mpath xlink:href="#path59"></mpath>
  </animateMotion>
</circle><path id="path60" d="M 736.3933759340924 162.05121734453522
c 0 20.67277576253804 -5.05823236742952 5.937924953069438 -10.996157320498959 5.937924953069438
S 714.4010612930946 182.72399310707326 714.4010612930946 162.05121734453522
s 5.05823236742952 -5.937924953069438 10.996157320498959 -5.937924953069438
S 736.3933759340924 141.37844158199718 736.3933759340924 162.05121734453522
z" fill="none" stroke="none"></path>
<circle cx="0" cy="0" r="7.258150552317278" fill="#e0ff77">
  <animateMotion begin="-8.268759725690202s" dur="10s" repeatCount="indefinite">
    <mpath xlink:href="#path60"></mpath>
  </animateMotion>
</circle><path id="path61" d="M 833.9497561624149 541.9452032299752
c 0 19.353193455640515 -4.735355845529061 5.558895992577595 -10.294251838106657 5.558895992577595
S 813.3612524862016 561.2983966856157 813.3612524862016 541.9452032299752
s 4.735355845529061 -5.558895992577595 10.294251838106657 -5.558895992577595
S 833.9497561624149 522.5920097743347 833.9497561624149 541.9452032299752
z" fill="none" stroke="none"></path>
<circle cx="0" cy="0" r="6.134493843862809" fill="#51cacc">
  <animateMotion begin="-2.546417784926731s" dur="10s" repeatCount="indefinite">
    <mpath xlink:href="#path61"></mpath>
  </animateMotion>
</circle><path id="path62" d="M 724.8827500240664 152.24774590653053
c 0 34.273220844772055 -8.386000844997417 9.844435774562186 -18.2304366195596 9.844435774562186
S 688.4218767849472 186.52096675130258 688.4218767849472 152.24774590653053
s 8.386000844997417 -9.844435774562186 18.2304366195596 -9.844435774562186
S 724.8827500240664 117.97452506175847 724.8827500240664 152.24774590653053
z" fill="none" stroke="none"></path>
<circle cx="0" cy="0" r="7.0566696366498745" fill="#9df871">
  <animateMotion begin="-1.5163977233867998s" dur="10s" repeatCount="indefinite">
    <mpath xlink:href="#path62"></mpath>
  </animateMotion>
</circle><path id="path63" d="M 537.0767582498352 285.8770344670957
c 0 31.051589244616064 -7.597729283257121 8.919073506432275 -16.516802789689397 8.919073506432275
S 504.0431526704563 316.9286237117118 504.0431526704563 285.8770344670957
s 7.597729283257121 -8.919073506432275 16.516802789689397 -8.919073506432275
S 537.0767582498352 254.82544522247966 537.0767582498352 285.8770344670957
z" fill="none" stroke="none"></path>
<circle cx="0" cy="0" r="7.048560262496234" fill="#51cacc">
  <animateMotion begin="-7.664102064609743s" dur="10s" repeatCount="indefinite">
    <mpath xlink:href="#path63"></mpath>
  </animateMotion>
</circle><path id="path64" d="M 857.2508556640431 288.97775647211904
c 0 33.973044282548685 -8.312553388283188 9.758214847115047 -18.070768235398237 9.758214847115047
S 821.1093191932467 322.95080075466774 821.1093191932467 288.97775647211904
s 8.312553388283188 -9.758214847115047 18.070768235398237 -9.758214847115047
S 857.2508556640431 255.00471218957034 857.2508556640431 288.97775647211904
z" fill="none" stroke="none"></path>
<circle cx="0" cy="0" r="5.867026726724743" fill="#ff708e">
  <animateMotion begin="-1.3844201650592503s" dur="10s" repeatCount="indefinite">
    <mpath xlink:href="#path64"></mpath>
  </animateMotion>
</circle><path id="path65" d="M 121.89737515087533 427.2291820717751
c 0 28.804053034204486 -7.047800210496842 8.273504594931076 -15.321304805427918 8.273504594931076
S 91.2547655400195 456.03323510597954 91.2547655400195 427.2291820717751
s 7.047800210496842 -8.273504594931076 15.321304805427918 -8.273504594931076
S 121.89737515087533 398.4251290375706 121.89737515087533 427.2291820717751
z" fill="none" stroke="none"></path>
<circle cx="0" cy="0" r="6.719845094442896" fill="#9df871">
  <animateMotion begin="-8.580328738534956s" dur="10s" repeatCount="indefinite">
    <mpath xlink:href="#path65"></mpath>
  </animateMotion>
</circle><path id="path66" d="M 344.2198152613094 320.90965000691455
c 0 20.3759287760604 -4.985599594142438 5.852660393123732 -10.83825998726617 5.852660393123732
S 322.5432952867771 341.28557878297494 322.5432952867771 320.90965000691455
s 4.985599594142438 -5.852660393123732 10.83825998726617 -5.852660393123732
S 344.2198152613094 300.53372123085416 344.2198152613094 320.90965000691455
z" fill="none" stroke="none"></path>
<circle cx="0" cy="0" r="5.908621132603461" fill="#de9dd6">
  <animateMotion begin="-9.7580728282141s" dur="10s" repeatCount="indefinite">
    <mpath xlink:href="#path66"></mpath>
  </animateMotion>
</circle><path id="path67" d="M 611.3919099503945 208.49305165723368
c 0 32.93491023646874 -8.05854186637001 9.460027408347404 -17.518569274717414 9.460027408347404
S 576.3547714009597 241.42796189370242 576.3547714009597 208.49305165723368
s 8.05854186637001 -9.460027408347404 17.518569274717414 -9.460027408347404
S 611.3919099503945 175.55814142076494 611.3919099503945 208.49305165723368
z" fill="none" stroke="none"></path>
<circle cx="0" cy="0" r="5.7206134318447885" fill="#9df871">
  <animateMotion begin="-5.93085605932319s" dur="10s" repeatCount="indefinite">
    <mpath xlink:href="#path67"></mpath>
  </animateMotion>
</circle><path id="path68" d="M 1131.1078416021317 320.60339997949626
c 0 20.856206569727796 -5.1031143734440345 5.990612525347346 -11.093726898791381 5.990612525347346
S 1108.920387804549 341.4596065492241 1108.920387804549 320.60339997949626
s 5.1031143734440345 -5.990612525347346 11.093726898791381 -5.990612525347346
S 1131.1078416021317 299.74719340976844 1131.1078416021317 320.60339997949626
z" fill="none" stroke="none"></path>
<circle cx="0" cy="0" r="4.629782540691256" fill="#e0ff77">
  <animateMotion begin="-9.669198212738806s" dur="10s" repeatCount="indefinite">
    <mpath xlink:href="#path68"></mpath>
  </animateMotion>
</circle><path id="path69" d="M 1044.9534839495916 275.2678431879604
c 0 36.24930727253378 -8.869511353917838 10.41203506764268 -19.281546421560517 10.41203506764268
S 1006.3903911064706 311.5171504604942 1006.3903911064706 275.2678431879604
s 8.869511353917838 -10.41203506764268 19.281546421560517 -10.41203506764268
S 1044.9534839495916 239.01853591542664 1044.9534839495916 275.2678431879604
z" fill="none" stroke="none"></path>
<circle cx="0" cy="0" r="4.31587671618429" fill="#e0ff77">
  <animateMotion begin="-0.7393249530068591s" dur="10s" repeatCount="indefinite">
    <mpath xlink:href="#path69"></mpath>
  </animateMotion>
</circle><path id="path70" d="M 440.43106979031467 92.72346840665848
c 0 19.379281525445208 -4.741739096651486 5.566389374330006 -10.308128470981492 5.566389374330006
S 419.81481284835166 112.10274993210369 419.81481284835166 92.72346840665848
s 4.741739096651486 -5.566389374330006 10.308128470981492 -5.566389374330006
S 440.43106979031467 73.34418688121328 440.43106979031467 92.72346840665848
z" fill="none" stroke="none"></path>
<circle cx="0" cy="0" r="6.841007150521407" fill="#9df871">
  <animateMotion begin="-8.635671954226735s" dur="10s" repeatCount="indefinite">
    <mpath xlink:href="#path70"></mpath>
  </animateMotion>
</circle><path id="path71" d="M 1214.9541453312959 301.0781097882132
c 0 25.934843000402687 -6.345759457545337 7.449369797988005 -13.795129255533343 7.449369797988005
S 1187.3638868202293 327.0129527886159 1187.3638868202293 301.0781097882132
s 6.345759457545337 -7.449369797988005 13.795129255533343 -7.449369797988005
S 1214.9541453312959 275.14326678781055 1214.9541453312959 301.0781097882132
z" fill="none" stroke="none"></path>
<circle cx="0" cy="0" r="4.116718886653987" fill="#e0ff77">
  <animateMotion begin="-7.574814955983705s" dur="10s" repeatCount="indefinite">
    <mpath xlink:href="#path71"></mpath>
  </animateMotion>
</circle><path id="path72" d="M 1179.725111070962 9.245520269141538
c 0 24.757824497353024 -6.057765568501272 7.111290015197145 -13.169055583698416 7.111290015197145
S 1153.3869999035653 34.003344766494564 1153.3869999035653 9.245520269141538
s 6.057765568501272 -7.111290015197145 13.169055583698416 -7.111290015197145
S 1179.725111070962 -15.512304228211486 1179.725111070962 9.245520269141538
z" fill="none" stroke="none"></path>
<circle cx="0" cy="0" r="6.119535177196637" fill="#51cacc">
  <animateMotion begin="-7.934631190376944s" dur="10s" repeatCount="indefinite">
    <mpath xlink:href="#path72"></mpath>
  </animateMotion>
</circle><path id="path73" d="M 1328.4787595335672 330.50642671739575
c 0 19.340512876407182 -4.732253150610267 5.555253698542489 -10.287506849152756 5.555253698542489
S 1307.9037458352616 349.8469395938029 1307.9037458352616 330.50642671739575
s 4.732253150610267 -5.555253698542489 10.287506849152756 -5.555253698542489
S 1328.4787595335672 311.1659138409886 1328.4787595335672 330.50642671739575
z" fill="none" stroke="none"></path>
<circle cx="0" cy="0" r="4.977375725533634" fill="#de9dd6">
  <animateMotion begin="-9.755850502386993s" dur="10s" repeatCount="indefinite">
    <mpath xlink:href="#path73"></mpath>
  </animateMotion>
</circle><path id="path74" d="M 305.0613535124863 526.335965883735
c 0 20.36259762178919 -4.982337715969695 5.848831231790513 -10.831168947760208 5.848831231790513
S 283.39901561696587 546.6985635055241 283.39901561696587 526.335965883735
s 4.982337715969695 -5.848831231790513 10.831168947760208 -5.848831231790513
S 305.0613535124863 505.9733682619458 305.0613535124863 526.335965883735
z" fill="none" stroke="none"></path>
<circle cx="0" cy="0" r="4.553576416184421" fill="#de9dd6">
  <animateMotion begin="-8.246900046142237s" dur="10s" repeatCount="indefinite">
    <mpath xlink:href="#path74"></mpath>
  </animateMotion>
</circle><path id="path75" d="M 793.3192554853927 206.94114223507583
c 0 19.260425495208217 -4.712657302019031 5.5322498762832115 -10.244907178302242 5.5322498762832115
S 772.8294411287882 226.20156773028404 772.8294411287882 206.94114223507583
s 4.712657302019031 -5.5322498762832115 10.244907178302242 -5.5322498762832115
S 793.3192554853927 187.68071673986762 793.3192554853927 206.94114223507583
z" fill="none" stroke="none"></path>
<circle cx="0" cy="0" r="6.114301368895005" fill="#e0ff77">
  <animateMotion begin="-3.9288517542551538s" dur="10s" repeatCount="indefinite">
    <mpath xlink:href="#path75"></mpath>
  </animateMotion>
</circle><path id="path76" d="M 238.13959335511595 643.0581852087009
c 0 20.30083539318769 -4.967225681311881 5.831091017192208 -10.798316698504088 5.831091017192208
S 216.54295995810776 663.3590206018886 216.54295995810776 643.0581852087009
s 4.967225681311881 -5.831091017192208 10.798316698504088 -5.831091017192208
S 238.13959335511595 622.7573498155133 238.13959335511595 643.0581852087009
z" fill="none" stroke="none"></path>
<circle cx="0" cy="0" r="5.764016681125125" fill="#ff708e">
  <animateMotion begin="-4.61710290553129s" dur="10s" repeatCount="indefinite">
    <mpath xlink:href="#path76"></mpath>
  </animateMotion>
</circle><path id="path77" d="M 1131.623177253017 343.3184012356145
c 0 31.966422841934584 -7.8215715464308015 9.181844858853552 -17.00341640528435 9.181844858853552
S 1097.6163444424485 375.28482407754905 1097.6163444424485 343.3184012356145
s 7.8215715464308015 -9.181844858853552 17.00341640528435 -9.181844858853552
S 1131.623177253017 311.35197839367993 1131.623177253017 343.3184012356145
z" fill="none" stroke="none"></path>
<circle cx="0" cy="0" r="5.635006524804658" fill="#ff708e">
  <animateMotion begin="-0.8854451914322303s" dur="10s" repeatCount="indefinite">
    <mpath xlink:href="#path77"></mpath>
  </animateMotion>
</circle><path id="path78" d="M 158.3674606922771 332.4902280203382
c 0 29.87122710788953 -7.308917271079353 8.580033318223588 -15.888950589302942 8.580033318223588
S 126.58955951367122 362.3614551282277 126.58955951367122 332.4902280203382
s 7.308917271079353 -8.580033318223588 15.888950589302942 -8.580033318223588
S 158.3674606922771 302.61900091244866 158.3674606922771 332.4902280203382
z" fill="none" stroke="none"></path>
<circle cx="0" cy="0" r="6.185030878415043" fill="#51cacc">
  <animateMotion begin="-3.6228987803821067s" dur="10s" repeatCount="indefinite">
    <mpath xlink:href="#path78"></mpath>
  </animateMotion>
</circle><path id="path79" d="M 1041.671754592661 274.62132213402566
c 0 33.7389303285405 -8.255270186770547 9.690969349687165 -17.94623953645771 9.690969349687165
S 1005.7792755197456 308.36025246256617 1005.7792755197456 274.62132213402566
s 8.255270186770547 -9.690969349687165 17.94623953645771 -9.690969349687165
S 1041.671754592661 240.88239180548516 1041.671754592661 274.62132213402566
z" fill="none" stroke="none"></path>
<circle cx="0" cy="0" r="4.841659851506723" fill="#9df871">
  <animateMotion begin="-3.6779999213255676s" dur="10s" repeatCount="indefinite">
    <mpath xlink:href="#path79"></mpath>
  </animateMotion>
</circle><path id="path80" d="M 1210.016706676876 473.91728788493316
c 0 20.433290940464406 -4.999635017347673 5.869136759495096 -10.86877177684277 5.869136759495096
S 1188.2791631231905 494.3505788253976 1188.2791631231905 473.91728788493316
s 4.999635017347673 -5.869136759495096 10.86877177684277 -5.869136759495096
S 1210.016706676876 453.48399694446874 1210.016706676876 473.91728788493316
z" fill="none" stroke="none"></path>
<circle cx="0" cy="0" r="4.184878616113852" fill="#9df871">
  <animateMotion begin="-7.250373222251558s" dur="10s" repeatCount="indefinite">
    <mpath xlink:href="#path80"></mpath>
  </animateMotion>
</circle><path id="path81" d="M 35.37811294589574 596.0052421869325
c 0 28.56794074797059 -6.990028055354505 8.205685108459637 -15.195713163814142 8.205685108459637
S 4.986686618267454 624.5731829349031 4.986686618267454 596.0052421869325
s 6.990028055354505 -8.205685108459637 15.195713163814142 -8.205685108459637
S 35.37811294589574 567.4373014389619 35.37811294589574 596.0052421869325
z" fill="none" stroke="none"></path>
<circle cx="0" cy="0" r="4.2620140298865525" fill="#ff708e">
  <animateMotion begin="-4.876001581029472s" dur="10s" repeatCount="indefinite">
    <mpath xlink:href="#path81"></mpath>
  </animateMotion>
</circle><path id="path82" d="M 152.72317696517962 523.817296730685
c 0 34.96832184930334 -8.556078750361454 10.04409244607649 -18.600171196437945 10.04409244607649
S 115.52283457230374 558.7856185799884 115.52283457230374 523.817296730685
s 8.556078750361454 -10.04409244607649 18.600171196437945 -10.04409244607649
S 152.72317696517962 488.8489748813817 152.72317696517962 523.817296730685
z" fill="none" stroke="none"></path>
<circle cx="0" cy="0" r="6.279932478205169" fill="#e0ff77">
  <animateMotion begin="-1.555315192824167s" dur="10s" repeatCount="indefinite">
    <mpath xlink:href="#path82"></mpath>
  </animateMotion>
</circle><path id="path83" d="M 1056.1075060178798 522.8529961572161
c 0 33.32645248111579 -8.154344756017691 9.572491670107725 -17.726836426125416 9.572491670107725
S 1020.6538331656291 556.1794486383319 1020.6538331656291 522.8529961572161
s 8.154344756017691 -9.572491670107725 17.726836426125416 -9.572491670107725
S 1056.1075060178798 489.52654367610035 1056.1075060178798 522.8529961572161
z" fill="none" stroke="none"></path>
<circle cx="0" cy="0" r="4.688577396200845" fill="#ff708e">
  <animateMotion begin="-0.47882081763802153s" dur="10s" repeatCount="indefinite">
    <mpath xlink:href="#path83"></mpath>
  </animateMotion>
</circle><path id="path84" d="M 544.4757523405306 399.39054398052696
c 0 26.3372121485417 -6.444211483153819 7.564943915006658 -14.009155398160477 7.564943915006658
S 516.4574415442096 425.72775612906867 516.4574415442096 399.39054398052696
s 6.444211483153819 -7.564943915006658 14.009155398160477 -7.564943915006658
S 544.4757523405306 373.05333183198525 544.4757523405306 399.39054398052696
z" fill="none" stroke="none"></path>
<circle cx="0" cy="0" r="7.138599833552294" fill="#e0ff77">
  <animateMotion begin="-3.338331777316932s" dur="10s" repeatCount="indefinite">
    <mpath xlink:href="#path84"></mpath>
  </animateMotion>
</circle><path id="path85" d="M 901.9156766476608 438.37496690038193
c 0 20.327983943467107 -4.973868411699398 5.838889005038424 -10.81275741673782 5.838889005038424
S 880.2901618141852 458.70295084384907 880.2901618141852 438.37496690038193
s 4.973868411699398 -5.838889005038424 10.81275741673782 -5.838889005038424
S 901.9156766476608 418.0469829569148 901.9156766476608 438.37496690038193
z" fill="none" stroke="none"></path>
<circle cx="0" cy="0" r="4.302529357033612" fill="#51cacc">
  <animateMotion begin="-2.727172717242683s" dur="10s" repeatCount="indefinite">
    <mpath xlink:href="#path85"></mpath>
  </animateMotion>
</circle><path id="path86" d="M 726.0948249498489 206.32205305182876
c 0 23.415457807796404 -5.7293141444608215 6.725716604367052 -12.455030748827873 6.725716604367052
S 701.1847634521931 229.73751085962516 701.1847634521931 206.32205305182876
s 5.7293141444608215 -6.725716604367052 12.455030748827873 -6.725716604367052
S 726.0948249498489 182.90659524403236 726.0948249498489 206.32205305182876
z" fill="none" stroke="none"></path>
<circle cx="0" cy="0" r="4.480719590892493" fill="#9df871">
  <animateMotion begin="-4.440689961583992s" dur="10s" repeatCount="indefinite">
    <mpath xlink:href="#path86"></mpath>
  </animateMotion>
</circle><path id="path87" d="M 198.81874032569408 516.3241439657191
c 0 32.46182477703791 -7.9427869135305516 9.324141159361954 -17.266928072892505 9.324141159361954
S 164.28488417990906 548.7859687427571 164.28488417990906 516.3241439657191
s 7.9427869135305516 -9.324141159361954 17.266928072892505 -9.324141159361954
S 198.81874032569408 483.8623191886812 198.81874032569408 516.3241439657191
z" fill="none" stroke="none"></path>
<circle cx="0" cy="0" r="7.6838868049843105" fill="#ff708e">
  <animateMotion begin="-2.5889881340026144s" dur="10s" repeatCount="indefinite">
    <mpath xlink:href="#path87"></mpath>
  </animateMotion>
</circle><path id="path88" d="M 661.7953817471644 92.86973155250257
c 0 33.95673669840642 -8.308563234716463 9.75353075379759 -18.06209398851405 9.75353075379759
S 625.6711937701361 126.82646825090899 625.6711937701361 92.86973155250257
s 8.308563234716463 -9.75353075379759 18.06209398851405 -9.75353075379759
S 661.7953817471644 58.912994854096155 661.7953817471644 92.86973155250257
z" fill="none" stroke="none"></path>
<circle cx="0" cy="0" r="5.354807966209297" fill="#e0ff77">
  <animateMotion begin="-8.36078470671774s" dur="10s" repeatCount="indefinite">
    <mpath xlink:href="#path88"></mpath>
  </animateMotion>
</circle></g>
</svg>