<svg xmlns="http://www.w3.org/2000/svg" xmlns:xlink="http://www.w3.org/1999/xlink" style="margin:auto;background:#ffffff;display:block;z-index:1;position:relative" width="1366" height="657" preserveAspectRatio="xMidYMid" viewBox="0 0 1366 657">
<g transform="translate(683,328.5) scale(1,1) translate(-683,-328.5)"><g transform="translate(964.0201291210315,-58.29102501066234) scale(100)" opacity="0.44000000000000006">
  <path d="M4.613664999999999 0 C4.613664999999999 1.0996299999999999 4.276557063878897 2.7214454042865706 3.4990012340827343 3.499001234082734 S1.09963 4.613664999999999 2.825055037294086e-16 4.613664999999999 S-2.7214454042865706 4.276557063878897 -3.499001234082734 3.4990012340827343 S-4.613664999999999 1.0996300000000006 -4.613664999999999 5.650110074588172e-16 S-4.276557063878898 -2.7214454042865706 -3.499001234082735 -3.499001234082734 S-1.0996300000000008 -4.613664999999999 -8.475165111882258e-16 -4.613664999999999 S2.72144540428657 -4.276557063878898 3.4990012340827334 -3.499001234082735 S4.613664999999999 -1.099630000000001 4.613664999999999 -1.1300220149176344e-15" fill="#ff00ff" stroke-width="0">
    <animateTransform attributeName="transform" type="rotate" dur="10s" repeatCount="indefinite" values="0;90"></animateTransform>
  </path>
</g><g transform="translate(1020.2241549452376,-135.64923001279476) scale(100)" opacity="0.44000000000000006">
  <path d="M5.536397999999998 0 C5.536397999999998 1.3195559999999995 5.1318684766546765 3.2657344851438843 4.198801480899281 4.19880148089928 S1.319556 5.536397999999998 3.390066044752903e-16 5.536397999999998 S-3.2657344851438843 5.1318684766546765 -4.19880148089928 4.198801480899281 S-5.536397999999998 1.3195560000000002 -5.536397999999998 6.780132089505806e-16 S-5.1318684766546765 -3.2657344851438843 -4.198801480899281 -4.19880148089928 S-1.3195560000000006 -5.536397999999998 -1.0170198134258708e-15 -5.536397999999998 S3.2657344851438834 -5.1318684766546765 4.198801480899279 -4.198801480899281 S5.536397999999998 -1.3195560000000008 5.536397999999998 -1.3560264179011611e-15" fill="#00c6ff" stroke-width="0">
    <animateTransform attributeName="transform" type="rotate" dur="5s" repeatCount="indefinite" values="0;90"></animateTransform>
  </path>
</g><g transform="translate(1155.1138169233327,-321.30892201791266) scale(100)" opacity="0.44000000000000006">
  <path d="M7.750957199999998 0 C7.750957199999998 1.8473783999999995 7.1846158673165466 4.5720282792014375 5.8783220732589925 5.878322073258992 S1.8473784 7.750957199999998 4.746092462654064e-16 7.750957199999998 S-4.5720282792014375 7.1846158673165466 -5.878322073258992 5.8783220732589925 S-7.750957199999998 1.8473784000000004 -7.750957199999998 9.492184925308129e-16 S-7.184615867316547 -4.5720282792014375 -5.878322073258993 -5.878322073258992 S-1.8473784000000009 -7.750957199999998 -1.4238277387962193e-15 -7.750957199999998 S4.572028279201437 -7.1846158673165466 5.878322073258991 -5.878322073258993 S7.7509571999999975 -1.8473784000000015 7.750957199999998 -1.8984369850616257e-15" fill="#00ffff" stroke-width="0">
    <animateTransform attributeName="transform" type="rotate" dur="3.3333333333333335s" repeatCount="indefinite" values="0;90"></animateTransform>
  </path>
</g></g>
</svg>