<svg xmlns="http://www.w3.org/2000/svg" xmlns:xlink="http://www.w3.org/1999/xlink" style="margin: auto; background: rgb(255, 255, 255); display: block; z-index: 1; position: relative; shape-rendering: auto;" width="910" height="798" preserveAspectRatio="xMidYMid" viewBox="0 0 910 798">
<g transform="translate(455,399) scale(1,1) translate(-455,-399)"><g transform="translate(706.6643714416574,203.78910341152704) scale(100)" opacity="0.4">
  <path d="M3.08945 0 C3.08945 0.7325499999999999 3.2073146383850406 1.0058680904577093 2.8410396383850407 1.640275 S2.1791319095422907 2.309267183721834 1.5447250000000003 2.675542183721834 S0.7325500000000001 3.2805500000000003 2.008757528471425e-16 3.2805500000000003 S-0.9103180904577087 3.0418171837218337 -1.5447249999999992 2.675542183721834 S-2.4747646383850395 2.2746819095422914 -2.84103963838504 1.6402750000000013 S-3.08945 0.7325500000000003 -3.08945 3.78348505362579e-16 S-3.207314638385041 -1.0058680904577086 -2.841039638385041 -1.6402749999999993 S-2.1791319095422916 -2.309267183721833 -1.5447250000000012 -2.6755421837218334 S-0.7325500000000005 -3.2805500000000003 -6.026272585414274e-16 -3.2805500000000003 S0.9103180904577072 -3.0418171837218346 1.544724999999998 -2.675542183721835 S2.474764638385039 -2.274681909542292 2.8410396383850394 -1.6402750000000017 S3.08945 -0.7325500000000007 3.08945 -7.56697010725158e-16" fill="#ff00ff" stroke-width="0">
    <animateTransform attributeName="transform" type="rotate" dur="10s" repeatCount="indefinite" values="0;60"></animateTransform>
  </path>
</g><g transform="translate(756.9972457299889,164.74692409383243) scale(100)" opacity="0.4">
  <path d="M3.70734 0 C3.70734 0.87906 3.848777566062049 1.2070417085492513 3.409247566062049 1.96833 S2.614958291450749 2.7711206204662004 1.8536700000000004 3.2106506204662004 S0.8790600000000002 3.9366600000000003 2.41050903416571e-16 3.9366600000000003 S-1.0923817085492504 3.650180620466201 -1.853669999999999 3.210650620466201 S-2.9697175660620476 2.72961829145075 -3.409247566062048 1.9683300000000015 S-3.70734 0.8790600000000004 -3.70734 4.540182064350948e-16 S-3.848777566062049 -1.2070417085492502 -3.4092475660620494 -1.968329999999999 S-2.61495829145075 -2.7711206204661996 -1.8536700000000015 -3.2106506204662 S-0.8790600000000007 -3.9366600000000003 -7.23152710249713e-16 -3.9366600000000003 S1.0923817085492487 -3.6501806204662017 1.8536699999999975 -3.210650620466202 S2.969717566062047 -2.72961829145075 3.4092475660620476 -1.968330000000002 S3.70734 -0.8790600000000008 3.70734 -9.080364128701897e-16" fill="#00c6ff" stroke-width="0">
    <animateTransform attributeName="transform" type="rotate" dur="5s" repeatCount="indefinite" values="0;60"></animateTransform>
  </path>
</g><g transform="translate(877.7961440219844,71.04569373136542) scale(100)" opacity="0.4">
  <path d="M5.190275999999999 0 C5.190275999999999 1.230684 5.388288592486868 1.6898583919689516 4.772946592486868 2.7556619999999996 S3.660941608031048 3.8795688686526795 2.595138 4.4949108686526795 S1.2306840000000003 5.511324 3.374712647831994e-16 5.511324 S-1.5293343919689502 5.1102528686526805 -2.595137999999998 4.49491086865268 S-4.157604592486867 3.8214656080310494 -4.772946592486867 2.755662000000002 S-5.190275999999999 1.2306840000000006 -5.190275999999999 6.356254890091327e-16 S-5.388288592486868 -1.6898583919689505 -4.772946592486869 -2.7556619999999987 S-3.6609416080310497 -3.879568868652679 -2.5951380000000017 -4.4949108686526795 S-1.230684000000001 -5.511324 -1.0124137943495981e-15 -5.511324 S1.5293343919689475 -5.110252868652681 2.595137999999996 -4.494910868652682 S4.157604592486866 -3.8214656080310503 4.772946592486866 -2.7556620000000027 S5.190275999999999 -1.2306840000000012 5.190275999999999 -1.2712509780182654e-15" fill="#00ffff" stroke-width="0">
    <animateTransform attributeName="transform" type="rotate" dur="3.3333333333333335s" repeatCount="indefinite" values="0;60"></animateTransform>
  </path>
</g></g>
</svg>